<svg width="1016px" height="251px" viewBox="0 0 1016 251" version="1.1" xmlns="http://www.w3.org/2000/svg" xmlns:xlink="http://www.w3.org/1999/xlink">
    <g stroke="none" stroke-width="1" fill="none" fill-rule="evenodd">
        <g>
            <g fill="#FFFFFF">
                <path d="M111.999862,0 C118.922941,0 124.535463,5.62965202 124.535463,12.5762613 C124.535463,18.4529644 120.518487,23.3900953 115.088203,24.7693017 L115.088203,52.3670464 C124.248536,53.8512981 131.249164,61.8211269 131.249164,71.4327753 C131.249164,73.0454158 131.051417,74.61526 130.679188,76.1111834 L139.166794,81.0269162 L139.178426,81.0269162 L145.849475,84.8921956 C149.370146,80.9899558 154.463097,78.5369526 160.122148,78.5369526 C166.537289,78.5369526 172.217665,81.6883128 175.715071,86.5262342 L197.827826,73.7184841 C195.53435,68.0012943 197.723136,61.3172983 203.196072,58.1464853 C209.190517,54.6741533 216.856117,56.7342091 220.316687,62.7490274 C223.781135,68.7657909 221.726118,76.457444 215.729735,79.9317213 C211.07299,82.627885 205.412,81.9859413 201.493898,78.7489886 L186.106476,87.6661707 L178.493221,92.0741843 C179.063197,93.8969154 179.37145,95.8383089 179.37145,97.8516779 C179.37145,107.463326 172.372761,115.433155 163.212427,116.915462 L163.212427,132.901806 C172.372761,134.384112 179.37145,142.355886 179.37145,151.967535 C179.37145,154.972999 178.687091,157.817004 177.463774,160.355599 L186.106476,165.35887 L200.175585,173.50961 C204.054914,169.210532 210.5224,168.051143 215.729735,171.070224 C221.726118,174.540611 223.781135,182.232264 220.316687,188.250973 C216.858055,194.265791 209.192456,196.327792 203.196072,192.853515 C198.260155,189.995892 195.995759,184.278703 197.279175,178.991421 L173.90433,165.446408 C170.406924,169.045183 165.525291,171.280315 160.122148,171.280315 C154.986545,171.280315 150.322045,169.263055 146.869229,165.975525 L139.178426,170.430226 L139.166794,170.430226 L130.679188,175.347904 C131.051417,176.845772 131.249164,178.413671 131.249164,180.028257 C131.249164,189.63796 124.248536,197.609734 115.088203,199.092041 L115.088203,226.228753 C120.518487,227.609905 124.535463,232.54509 124.535463,238.421793 C124.535463,245.368403 118.922941,251 111.999862,251 C105.078721,251 99.4661988,245.368403 99.4661988,238.421793 C99.4661988,232.54509 103.481236,227.609905 108.913459,226.228753 L108.913459,199.092041 C99.751187,197.609734 92.7505595,189.63796 92.7505595,180.028257 C92.7505595,177.888445 93.0995246,175.830334 93.739294,173.906448 L87.7390331,170.430226 L87.7293396,170.430226 L80.0365981,165.975525 C76.5837824,169.263055 71.9192823,171.280315 66.7836794,171.280315 C60.3336413,171.280315 54.6261234,168.093939 51.1325951,163.209331 L29.3610508,175.818662 L26.2940354,177.596652 C28.3858873,183.241866 26.1777137,189.74106 20.80559,192.853515 C14.8092065,196.327792 7.14360671,194.265791 3.68109753,188.250973 C0.220527046,182.232264 2.273605,174.540611 8.26998847,171.070224 C13.033362,168.309866 18.8513855,169.041293 22.7753041,172.476664 L26.2727098,170.451624 L48.381587,157.643874 C47.8329363,155.848376 47.536316,153.943943 47.536316,151.967535 C47.536316,142.958924 53.6858563,135.387879 62.000919,133.255847 L62.000919,116.56531 C53.6858563,114.429389 47.536316,106.860288 47.536316,97.8516779 C47.536316,95.3986747 47.9919093,93.0507169 48.8255481,90.8933969 L24.4309496,76.7628536 C20.6504944,81.6513524 13.7623113,83.1122607 8.26998847,79.9317213 C2.273605,76.457444 0.220527046,68.7657909 3.68303622,62.7509726 C7.14360671,56.7342091 14.8111452,54.6741533 20.80559,58.1464853 C25.4410096,60.8329226 27.7189762,66.040448 26.9144178,71.0437185 L29.3629895,72.4618306 L51.946847,85.5458111 C55.4791492,81.2661862 60.8144377,78.5369526 66.7836794,78.5369526 C72.4446687,78.5369526 77.5356816,80.9899558 81.0544129,84.8921956 L87.7293396,81.0269162 L87.7390331,81.0269162 L93.739294,77.5526389 C93.0995246,75.628753 92.7505595,73.5706425 92.7505595,71.4327753 C92.7505595,61.8211269 99.751187,53.8512981 108.913459,52.3670464 L108.913459,24.7693017 C103.481236,23.3900953 99.4661988,18.4529644 99.4661988,12.5762613 C99.4661988,5.62965202 105.078721,0 111.999862,0 Z M159,116.568065 C149.717823,115.065939 142.631008,106.989545 142.631008,97.2493798 C142.631008,94.4501418 143.216176,91.7888943 144.27262,89.3819438 L137.788646,85.6207141 L129.826042,81 C126.362163,86.4407726 120.294482,90.0482413 113.386359,90.0482413 C107.008422,90.0482413 101.347217,86.9730221 97.7890821,82.2182599 L91.9256213,85.6167715 L85.4455741,89.3819438 C86.4980909,91.7888943 87.0852224,94.4501418 87.0852224,97.2493798 C87.0852224,107.580934 79.1069099,116.045672 69,116.771108 L69,132.56709 C79.1069099,133.292527 87.0852224,141.755294 87.0852224,152.088819 C87.0852224,155.400594 86.2644165,158.521153 84.8191696,161.257309 L91.9295486,165.379286 L97.7890821,168.779769 C101.347217,164.026978 107.008422,160.951759 113.386359,160.951759 C120.294482,160.951759 126.362163,164.559227 129.826042,170 L137.790609,165.383228 L144.899025,161.257309 C143.451814,158.521153 142.631008,155.400594 142.631008,152.088819 C142.631008,142.348653 149.717823,134.270289 159,132.768162 L159,116.568065 Z M210.999007,110 C219.837007,110 227,117.164535 227,126 C227,134.837452 219.837007,142 210.999007,142 C202.162993,142 195,134.837452 195,126 C195,117.164535 202.162993,110 210.999007,110 Z M161,196 C169.835465,196 177,203.162993 177,212.000993 C177,220.83502 169.835465,228 161,228 C152.162548,228 145,220.83502 145,212.000993 C145,203.162993 152.162548,196 161,196 Z M67,196 C75.835465,196 83,203.162993 83,212.000993 C83,220.83502 75.835465,228 67,228 C58.164535,228 51,220.83502 51,212.000993 C51,203.162993 58.164535,196 67,196 Z M16,110 C24.8374519,110 32,117.164535 32,126 C32,134.837452 24.8374519,142 16,142 C7.16254812,142 0,134.837452 0,126 C0,117.164535 7.16254812,110 16,110 Z M67,23 C75.835465,23 83,30.1625481 83,39 C83,47.8374519 75.835465,55 67,55 C58.164535,55 51,47.8374519 51,39 C51,30.1625481 58.164535,23 67,23 Z M161,23 C169.835465,23 177,30.1625481 177,39 C177,47.8374519 169.835465,55 161,55 C152.162548,55 145,47.8374519 145,39 C145,30.1625481 152.162548,23 161,23 Z M68.8595,132.513 L68.1405,132.487 C68.3835,132.487 68.6225,132.496 68.8595,132.513 Z M67.9979949,141 C74.0734597,141 79,145.922979 79,151.998997 C79,158.073011 74.0734597,163 67.9979949,163 C61.9245352,163 57,158.073011 57,151.998997 C57,145.922979 61.9245352,141 67.9979949,141 Z M112.998997,168 C119.075016,168 124,172.92654 124,179.002005 C124,185.075465 119.075016,190 112.998997,190 C106.922979,190 102,185.075465 102,179.002005 C102,172.92654 106.922979,168 112.998997,168 Z M161.001003,141 C167.077021,141 172,145.922979 172,151.998997 C172,158.073011 167.077021,163 161.001003,163 C154.924984,163 150,158.073011 150,151.998997 C150,145.922979 154.924984,141 161.001003,141 Z M172,98 C172,104.07346 167.077021,109 161.001003,109 C154.924984,109 150,104.07346 150,98 C150,91.9245352 154.924984,87 161.001003,87 C167.077021,87 172,91.9245352 172,98 Z M102,70.0010026 C102,63.924984 106.922979,59 112.998997,59 C119.075016,59 124,63.924984 124,70.0010026 C124,76.0730107 119.075016,81 112.998997,81 C106.922979,81 102,76.0730107 102,70.0010026 Z M68.1405,117.5125 L68.8595,117.4875 C68.6225,117.5045 68.3835,117.5125 68.1405,117.5125 Z M67.9979949,87 C74.0734597,87 79,91.9245352 79,98 C79,104.07346 74.0734597,109 67.9979949,109 C61.9245352,109 57,104.07346 57,98 C57,91.9245352 61.9245352,87 67.9979949,87 Z" id="Fill-2"></path>
            </g>
            <path d="M374.329212,200 C397.289263,200 412.526213,192.740463 425.93521,181.043084 C428.172047,179.025883 430,176.001275 430,172.169787 C430,165.917657 424.513736,160.675322 418.214514,160.675322 C415.169529,160.675322 412.526213,161.885642 410.69826,163.499403 C400.336653,172.169787 390.177083,177.01107 375.14217,177.01107 C347.917697,177.01107 328.209478,154.626106 328.209478,126.998806 L328.209478,126.595366 C328.209478,98.9704541 348.119734,76.788404 375.14217,76.788404 C388.755609,76.788404 399.319253,81.6272993 409.072344,89.4908027 C410.69826,90.7011233 413.137134,91.9114439 416.591003,91.9114439 C423.498741,91.9114439 428.9826,86.6691084 428.9826,79.8106248 C428.9826,75.3751696 426.748168,71.9471214 424.107257,69.9299204 C411.713255,60.4526562 397.289263,54 375.346612,54 C332.271863,54 302,86.8696349 302,126.998806 L302,127.402247 C302,167.934858 332.882784,200 374.329212,200 Z M472,136 C474.191421,119.482838 484.551721,108 499.297222,108 C515.238686,108 524.405382,120.288902 526,136 L472,136 Z M539.380492,186.023418 C541.183408,184.22967 542.587785,181.632399 542.587785,178.638092 C542.587785,173.048877 538.379399,168.856376 532.968277,168.856376 C530.161895,168.856376 528.558248,169.655172 526.755332,171.051885 C519.942205,176.6411 511.926344,180.235686 501.706654,180.235686 C486.075843,180.235686 473.851594,170.652487 471.246854,153.483081 L537.577575,153.483081 C543.788148,153.483081 549,148.692663 549,141.905253 C549,117.549039 532.368095,90 498.701002,90 C468.442845,90 447,114.755613 447,144.89956 L447,145.298958 C447,177.839295 470.646673,200 501.305742,200 C517.738377,200 529.760983,194.609303 539.380492,186.023418 Z M575,186.976651 C575,193.788854 580.466533,199 587.151049,199 C594.036963,199 599.505894,193.788854 599.505894,186.976651 L599.505894,138.287897 C599.505894,121.857488 609.42957,112.04004 623.606593,112.04004 C638.188811,112.04004 646.491708,121.456631 646.491708,137.887039 L646.491708,186.976651 C646.491708,193.788854 651.960639,199 658.846553,199 C665.734865,199 671,193.788854 671,186.976651 L671,130.472364 C671,106.029551 657.024376,90 632.923676,90 C616.315485,90 606.391808,98.6148757 599.505894,108.432324 L599.505894,103.22355 C599.505894,96.4113461 594.036963,91.0009575 587.151049,91.0009575 C580.265135,91.0009575 575,96.4113461 575,103.22355 L575,186.976651 Z M737.324516,200 C743.799104,200 748.860446,198.98923 754.1206,197.168887 C757.5603,195.750935 760.595189,192.110248 760.595189,187.657591 C760.595189,181.99297 755.737451,177.542708 750.276088,177.542708 C749.466465,177.542708 747.037596,178.148691 744.203916,178.148691 C735.908873,178.148691 731.053531,174.304413 731.053531,164.795513 L731.053531,112.393569 L750.276088,112.393569 C756.142262,112.393569 761,107.737322 761,101.871504 C761,96.0032912 756.142262,91.3494391 750.276088,91.3494391 L731.053531,91.3494391 L731.053531,73.1412128 C731.053531,66.463426 725.589773,61 718.911581,61 C712.032181,61 706.570819,66.463426 706.570819,73.1412128 L706.570819,91.3494391 L702.522704,91.3494391 C696.654135,91.3494391 692,96.0032912 692,101.871504 C692,107.737322 696.654135,112.393569 702.522704,112.393569 L706.570819,112.393569 L706.570819,168.639791 C706.570819,192.110248 719.316392,200 737.324516,200 Z M782,186.887561 C782,193.750241 787.587393,199 794.419695,199 C801.457849,199 807.047693,193.549522 807.047693,186.887561 L807.047693,155.398566 C807.047693,130.167704 819.261537,116.846172 837.062773,113.81866 C842.652616,112.807896 847,108.568901 847,102.110049 C847,95.0466503 842.444315,90 834.580305,90 C823.60647,90 812.843387,100.090911 807.047693,113.414833 L807.047693,102.513877 C807.047693,95.6511969 801.457849,90.200719 794.419695,90.200719 C787.381541,90.200719 782,95.6511969 782,102.513877 L782,186.887561 Z M867,64.520788 C867,72.0088077 873.086643,77 881.001201,77 C888.913357,77 895,72.0088077 895,64.520788 L895,63.2723743 C895,55.7843546 888.913357,51 881.001201,51 C873.086643,51 867,55.7843546 867,63.2723743 L867,64.520788 Z M869,186.976544 C869,193.788808 874.132864,199 880.406614,199 C886.869387,199 892,193.788808 892,186.976544 L892,103.222701 C892,96.4104366 886.869387,91 880.406614,91 C873.943841,91 869,96.4104366 869,103.222701 L869,186.976544 Z M973.940541,200 C991.648157,200 1003.11892,194.009024 1012.57902,185.026104 C1014.79218,183.229992 1016,180.635084 1016,177.439897 C1016,171.649801 1011.3712,166.859383 1005.53457,166.859383 C1002.71631,166.859383 1000.30304,168.256096 998.892723,169.454292 C992.25326,175.04587 984.806199,178.83661 975.148366,178.83661 C956.433038,178.83661 943.351843,163.865077 943.351843,145.10044 L943.351843,144.698679 C943.351843,126.333441 956.433038,111.161027 974.140654,111.161027 C983.800869,111.161027 990.642827,114.95413 996.882064,120.143947 C998.490115,121.342142 1001.10826,122.540337 1004.12663,122.540337 C1010.36348,122.540337 1015.3949,117.749919 1015.3949,111.560425 C1015.3949,107.568804 1013.18174,104.572134 1011.57131,103.175422 C1002.5162,95.3906972 991.045436,90 974.343149,90 C942.344131,90 919,115.152648 919,145.10044 L919,145.499839 C919,175.442905 942.344131,200 973.940541,200 L973.940541,200 Z" id="Fill-1" fill="#FFFFFE"></path>
        </g>
    </g>
</svg>