<?xml version="1.0" encoding="UTF-8"?>
<svg width="563px" height="52px" viewBox="0 0 563 52" version="1.1" xmlns="http://www.w3.org/2000/svg" xmlns:xlink="http://www.w3.org/1999/xlink">
    <defs>
        <path d="M24.8634921,52.1 C32.7555556,52.1 37.9936508,49.5640884 42.6031746,45.478453 C43.3714286,44.7740331 44,43.7174033 44,42.3790055 C44,40.1953039 42.1142857,38.3638122 39.9492063,38.3638122 C38.9015873,38.3638122 37.9936508,38.7864641 37.3650794,39.35 C33.8031746,42.3790055 30.3111111,44.0696133 25.1428571,44.0696133 C15.784127,44.0696133 9.00952381,36.2505525 9.00952381,26.6 L9.00952381,26.459116 C9.00952381,16.8085635 15.8539683,9.05994475 25.1428571,9.05994475 C29.8222222,9.05994475 33.4539683,10.7505525 36.8063492,13.4977901 C37.3650794,13.920442 38.2031746,14.3430939 39.3904762,14.3430939 C41.7650794,14.3430939 43.6507937,12.5116022 43.6507937,10.1165746 C43.6507937,8.56685083 42.8825397,7.36933702 41.9746032,6.66491713 C37.7142857,3.35414365 32.7555556,1.1 25.2126984,1.1 C10.4063492,1.1 0,12.5820442 0,26.6 L0,26.740884 C0,40.8997238 10.615873,52.1 24.8634921,52.1 Z M69.1669941,52.1 C74.9666012,52.1 79.2102161,50.1889292 82.6051081,47.1453721 C83.2416503,46.5083485 83.7367387,45.5882033 83.7367387,44.5264973 C83.7367387,42.5446461 82.2514735,41.0582577 80.3418468,41.0582577 C79.3516699,41.0582577 78.7858546,41.3413793 78.1493124,41.8368421 C75.7445972,43.8186933 72.9155206,45.0927405 69.3084479,45.0927405 C63.7917485,45.0927405 59.4774067,41.6952813 58.5579568,35.608167 L81.9685658,35.608167 C84.1611002,35.608167 86,33.9094374 86,31.5029038 C86,22.8676951 80.129666,13.1 68.2475442,13.1 C57.56778,13.1 50,21.8767695 50,32.5646098 L50,32.7061706 C50,44.2433757 58.345776,52.1 69.1669941,52.1 Z M78,30.1 L59,30.1 C59.7712177,24.2007194 63.4169742,20.1 68.6051661,20.1 C74.2140221,20.1 77.4391144,24.4884892 78,30.1 Z M123.822785,51.1 C126.189873,51.1 128,49.2838235 128,46.9088235 L128,27.2102941 C128,18.6882353 123.196203,13.1 114.911392,13.1 C109.202532,13.1 105.791139,16.1036765 103.424051,19.5264706 L103.424051,17.7102941 C103.424051,15.3352941 101.544304,13.4492647 99.1772152,13.4492647 C96.8101266,13.4492647 95,15.3352941 95,17.7102941 L95,46.9088235 C95,49.2838235 96.8797468,51.1 99.1772152,51.1 C101.544304,51.1 103.424051,49.2838235 103.424051,46.9088235 L103.424051,29.9345588 C103.424051,24.2066176 106.835443,20.7838235 111.708861,20.7838235 C116.721519,20.7838235 119.575949,24.0669118 119.575949,29.7948529 L119.575949,46.9088235 C119.575949,49.2838235 121.455696,51.1 123.822785,51.1 Z M150.765396,52.1 C153.017595,52.1 154.777126,51.750655 156.607038,51.1218341 C157.803519,50.6327511 158.859238,49.3751092 158.859238,47.8379913 C158.859238,45.8816594 157.170088,44.3445415 155.269795,44.3445415 C154.98827,44.3445415 154.143695,44.5541485 153.158358,44.5541485 C150.272727,44.5541485 148.583578,43.2266376 148.583578,39.9427948 L148.583578,21.8467249 L155.269795,21.8467249 C157.31085,21.8467249 159,20.239738 159,18.2135371 C159,16.1873362 157.31085,14.5803493 155.269795,14.5803493 L148.583578,14.5803493 L148.583578,8.29213974 C148.583578,5.98646288 146.683284,4.1 144.360704,4.1 C141.967742,4.1 140.067449,5.98646288 140.067449,8.29213974 L140.067449,14.5803493 L138.659824,14.5803493 C136.618768,14.5803493 135,16.1873362 135,18.2135371 C135,20.239738 136.618768,21.8467249 138.659824,21.8467249 L140.067449,21.8467249 L140.067449,41.2703057 C140.067449,49.3751092 144.501466,52.1 150.765396,52.1 Z M171.203822,52.1 C173.585987,52.1 175.477707,50.2 175.477707,47.8777778 L175.477707,36.9 C175.477707,28.1037037 179.611465,23.4592593 185.636943,22.4037037 C187.528662,22.0518519 189,20.5740741 189,18.3222222 C189,15.8592593 187.458599,14.1 184.796178,14.1 C181.082803,14.1 177.43949,17.6185185 175.477707,22.262963 L175.477707,18.462963 C175.477707,16.0703704 173.585987,14.1703704 171.203822,14.1703704 C168.821656,14.1703704 167,16.0703704 167,18.462963 L167,47.8777778 C167,50.2703704 168.89172,52.1 171.203822,52.1 Z M200.5,9.1 C203.043478,9.1 205,7.372 205,4.78 L205,4.348 C205,1.756 203.043478,0.1 200.5,0.1 C197.956522,0.1 196,1.756 196,4.348 L196,4.78 C196,7.372 197.956522,9.1 200.5,9.1 Z M200.46281,52.1 C202.991736,52.1 205,50.2669759 205,47.8699443 L205,18.4005566 C205,16.003525 202.991736,14.1 200.46281,14.1 C197.933884,14.1 196,16.003525 196,18.4005566 L196,47.8699443 C196,50.2669759 198.008264,52.1 200.46281,52.1 Z M233.257261,52.1 C239.46473,52.1 243.485477,49.976588 246.80083,46.7914701 C247.576763,46.1544465 248,45.2343013 248,44.1018149 C248,42.0491833 246.377593,40.3504537 244.33195,40.3504537 C243.344398,40.3504537 242.497925,40.8459165 242.004149,41.2705989 C239.676349,43.2524501 237.06639,44.5972777 233.680498,44.5972777 C227.120332,44.5972777 222.53527,39.2887477 222.53527,32.6353902 L222.53527,32.4938294 C222.53527,25.9820327 227.120332,20.6027223 233.327801,20.6027223 C236.713693,20.6027223 239.112033,21.9475499 241.298755,23.7878403 C241.863071,24.2125227 242.780083,24.6372051 243.838174,24.6372051 C246.024896,24.6372051 247.788382,22.9384755 247.788382,20.7442831 C247.788382,19.3286751 247.012448,18.2669691 246.448133,17.7715064 C243.273859,15.0110708 239.253112,13.1 233.39834,13.1 C222.182573,13.1 214,22.0183303 214,32.6353902 L214,32.776951 C214,43.3940109 222.182573,52.1 233.257261,52.1 Z M313.524476,52.1 C315.622378,52.1 317.65035,50.4687943 317.65035,48.0574468 C317.65035,46.7099291 317.090909,45.7879433 316.251748,44.7241135 L306.881119,32.7382979 C313.454545,30.6815603 318,25.8588652 318,17.9156028 L318,17.7737589 C318,13.4475177 316.531469,9.75957447 313.944056,7.06453901 C310.797203,3.94397163 305.972028,2.1 299.818182,2.1 L282.335664,2.1 C279.888112,2.1 278,4.01489362 278,6.49716312 L278,47.7737589 C278,50.1851064 279.888112,52.1 282.335664,52.1 C284.713287,52.1 286.601399,50.1851064 286.601399,47.7737589 L286.601399,34.4404255 L297.440559,34.4404255 L309.328671,49.8304965 C310.307692,51.1780142 311.566434,52.1 313.524476,52.1 Z M299.777778,26.1 L287,26.1 L287,9.1 L299.70679,9.1 C306.166667,9.1 310,12.0659574 310,17.4914894 L310,17.6361702 C310,22.7723404 306.024691,26.1 299.777778,26.1 Z M330.5,9.1 C333.043478,9.1 335,7.372 335,4.78 L335,4.348 C335,1.756 333.043478,0.1 330.5,0.1 C327.956522,0.1 326,1.756 326,4.348 L326,4.78 C326,7.372 327.956522,9.1 330.5,9.1 Z M330.46281,52.1 C332.991736,52.1 335,50.2669759 335,47.8699443 L335,18.4005566 C335,16.003525 332.991736,14.1 330.46281,14.1 C327.933884,14.1 326,16.003525 326,18.4005566 L326,47.8699443 C326,50.2669759 328.008264,52.1 330.46281,52.1 Z M358.466667,52.1 C366.061905,52.1 372,48.279159 372,40.5680073 L372,40.4290676 C372,33.8294333 365.992857,31.397989 360.67619,29.730713 C356.395238,28.3413163 352.459524,27.2297989 352.459524,24.5204753 L352.459524,24.3815356 C352.459524,22.2974406 354.32381,20.7691042 357.569048,20.7691042 C360.12381,20.7691042 363.161905,21.7416819 366.130952,23.2700183 C366.683333,23.5478976 367.097619,23.6868373 367.788095,23.6868373 C369.721429,23.6868373 371.240476,22.2279707 371.240476,20.2828154 C371.240476,18.8239488 370.411905,17.7124314 369.238095,17.0872029 C365.716667,15.2115174 361.642857,14.1 357.77619,14.1 C350.52619,14.1 344.795238,18.33766 344.795238,25.2846435 L344.795238,25.4235832 C344.795238,32.4400366 350.802381,34.6630713 356.188095,36.1914077 C360.469048,37.5113346 364.335714,38.4839122 364.335714,41.3321755 L364.335714,41.4711152 C364.335714,43.9025594 362.264286,45.4308958 358.67381,45.4308958 C355.359524,45.4308958 351.7,44.2499086 348.178571,41.8879342 C347.695238,41.6100548 347.07381,41.4016453 346.383333,41.4016453 C344.45,41.4016453 343,42.9299817 343,44.8056673 C343,46.195064 343.690476,47.2371115 344.588095,47.7234004 C348.8,50.6411335 353.840476,52.1 358.466667,52.1 Z M398.166994,52.1 C403.966601,52.1 408.210216,50.1889292 411.605108,47.1453721 C412.24165,46.5083485 412.736739,45.5882033 412.736739,44.5264973 C412.736739,42.5446461 411.251473,41.0582577 409.341847,41.0582577 C408.35167,41.0582577 407.785855,41.3413793 407.149312,41.8368421 C404.744597,43.8186933 401.915521,45.0927405 398.308448,45.0927405 C392.791749,45.0927405 388.477407,41.6952813 387.557957,35.608167 L410.968566,35.608167 C413.1611,35.608167 415,33.9094374 415,31.5029038 C415,22.8676951 409.129666,13.1 397.247544,13.1 C386.56778,13.1 379,21.8767695 379,32.5646098 L379,32.7061706 C379,44.2433757 387.345776,52.1 398.166994,52.1 Z M407,30.1 L388,30.1 C388.771218,24.2007194 392.416974,20.1 397.605166,20.1 C403.214022,20.1 406.439114,24.4884892 407,30.1 Z" id="path-1"></path>
        <path d="M443.042553,52.1 C444.06383,52.1 445,51.0478673 445,49.9518957 C445,49.1189573 444.659574,48.5490521 444.148936,48.1545024 C438.744681,44.2528436 436.148936,39.8251185 436.148936,33.6 C436.148936,27.3748815 438.744681,22.9471564 444.148936,19.0454976 C444.659574,18.6509479 445,18.0810427 445,17.2481043 C445,16.1521327 444.06383,15.1 443.042553,15.1 C442.489362,15.1 441.978723,15.2753555 441.808511,15.406872 C434.787234,19.7469194 431,25.6651659 431,33.6 C431,41.5348341 434.787234,47.4530806 441.808511,51.793128 C441.978723,51.9246445 442.489362,52.1 443.042553,52.1 Z M464.822222,47.1 C469.844444,47.1 473.177778,45.5088398 476.111111,42.9453039 C476.6,42.5033149 477,41.8403315 477,41.0005525 C477,39.6303867 475.8,38.4812155 474.422222,38.4812155 C473.755556,38.4812155 473.177778,38.7464088 472.777778,39.1 C470.511111,41.0005525 468.288889,42.061326 465,42.061326 C459.044444,42.061326 454.733333,37.1552486 454.733333,31.1 L454.733333,31.0116022 C454.733333,24.9563536 459.088889,20.0944751 465,20.0944751 C467.977778,20.0944751 470.288889,21.1552486 472.422222,22.8790055 C472.777778,23.1441989 473.311111,23.4093923 474.066667,23.4093923 C475.577778,23.4093923 476.777778,22.260221 476.777778,20.7574586 C476.777778,19.7850829 476.288889,19.0337017 475.711111,18.5917127 C473,16.5143646 469.844444,15.1 465.044444,15.1 C455.622222,15.1 449,22.3044199 449,31.1 L449,31.1883978 C449,40.0723757 455.755556,47.1 464.822222,47.1 Z M485.7,46.1 C487.160656,46.1 488.355738,44.9211268 488.355738,43.4802817 L488.355738,24.0943662 L504.290164,44.4408451 C505.042623,45.4014085 505.839344,46.056338 507.122951,46.056338 L507.344262,46.056338 C508.84918,46.056338 510,44.8774648 510,43.3929577 L510,17.7197183 C510,16.2788732 508.804918,15.1 507.3,15.1 C505.839344,15.1 504.644262,16.2788732 504.644262,17.7197183 L504.644262,36.4943662 L489.152459,16.715493 C488.4,15.7985915 487.647541,15.143662 486.319672,15.143662 L485.744262,15.143662 C484.195082,15.143662 483,16.3661972 483,17.8507042 L483,43.4802817 C483,44.9211268 484.195082,46.1 485.7,46.1 Z M540.202797,46.1 C541.513986,46.1 542.781469,45.0886525 542.781469,43.593617 C542.781469,42.758156 542.431818,42.1865248 541.907343,41.5269504 L536.050699,34.0957447 C540.159091,32.8205674 543,29.8304965 543,24.9056738 L543,24.8177305 C543,22.135461 542.082168,19.8489362 540.465035,18.1780142 C538.498252,16.2432624 535.482517,15.1 531.636364,15.1 L520.70979,15.1 C519.18007,15.1 518,16.287234 518,17.8262411 L518,43.4177305 C518,44.912766 519.18007,46.1 520.70979,46.1 C522.195804,46.1 523.375874,44.912766 523.375874,43.4177305 L523.375874,35.1510638 L530.15035,35.1510638 L537.58042,44.6929078 C538.192308,45.5283688 538.979021,46.1 540.202797,46.1 Z M531.777778,30.1 L524,30.1 L524,20.1 L531.734568,20.1 C535.666667,20.1 538,21.8446809 538,25.0361702 L538,25.1212766 C538,28.1425532 535.580247,30.1 531.777778,30.1 Z M550.951515,52.1 C551.545455,52.1 552.012121,51.9246445 552.181818,51.793128 C559.224242,47.4530806 563,41.5348341 563,33.6 C563,25.6651659 559.224242,19.7469194 552.181818,15.406872 C552.012121,15.2753555 551.545455,15.1 550.951515,15.1 C549.933333,15.1 549,16.1521327 549,17.2481043 C549,18.0810427 549.381818,18.6509479 549.890909,19.0454976 C555.236364,22.9471564 557.866667,27.3748815 557.866667,33.6 C557.866667,39.8251185 555.236364,44.2528436 549.890909,48.1545024 C549.381818,48.5490521 549,49.1189573 549,49.9518957 C549,51.0478673 549.933333,52.1 550.951515,52.1 Z" id="path-2"></path>
    </defs>
    <g id="Page-1" stroke="none" stroke-width="1" fill="none" fill-rule="evenodd">
        <g id="CNR_text" transform="translate(0.000000, -0.100000)" fill-rule="nonzero">
            <g id="CNR_Text">
                <g id="CentricRise">
                    <use fill="#4A4A4A" xlink:href="#path-1"></use>
                    <use fill="#FFFFFF" xlink:href="#path-1"></use>
                </g>
                <g id="(CNR)" opacity="0.589006696">
                    <use fill="#4A4A4A" xlink:href="#path-2"></use>
                    <use fill="#FFFFFF" xlink:href="#path-2"></use>
                </g>
            </g>
        </g>
    </g>
</svg>