<?xml version="1.0" encoding="UTF-8"?>
<svg width="579px" height="52px" viewBox="0 0 579 52" version="1.1" xmlns="http://www.w3.org/2000/svg" xmlns:xlink="http://www.w3.org/1999/xlink">
    <defs>
        <path d="M24.7695775,51.9743662 C32.631831,51.9743662 37.8501408,49.4695775 42.4422535,45.4340845 C43.2076056,44.7383099 43.8338028,43.6946479 43.8338028,42.3726761 C43.8338028,40.2157746 41.9552113,38.4067606 39.7983099,38.4067606 C38.7546479,38.4067606 37.8501408,38.8242254 37.2239437,39.3808451 C33.675493,42.3726761 30.1966197,44.0425352 25.0478873,44.0425352 C15.724507,44.0425352 8.97549296,36.3194366 8.97549296,26.7873239 L8.97549296,26.648169 C8.97549296,17.1160563 15.7940845,9.46253521 25.0478873,9.46253521 C29.7095775,9.46253521 33.3276056,11.1323944 36.6673239,13.8459155 C37.2239437,14.2633803 38.0588732,14.6808451 39.2416901,14.6808451 C41.6073239,14.6808451 43.4859155,12.871831 43.4859155,10.5061972 C43.4859155,8.97549296 42.7205634,7.79267606 41.8160563,7.09690141 C37.571831,3.82676056 32.631831,1.60028169 25.1174648,1.60028169 C10.3670423,1.60028169 0,12.9414085 0,26.7873239 L0,26.9264789 C0,40.9115493 10.5757746,51.9743662 24.7695775,51.9743662 Z M68.6729577,51.9743662 C74.3783099,51.9743662 78.5529577,50.0957746 81.8926761,47.1039437 C82.5188732,46.4777465 83.0059155,45.5732394 83.0059155,44.5295775 C83.0059155,42.5814085 81.5447887,41.1202817 79.6661972,41.1202817 C78.6921127,41.1202817 78.135493,41.3985915 77.5092958,41.8856338 C75.143662,43.8338028 72.3605634,45.0861972 68.8121127,45.0861972 C63.3850704,45.0861972 59.1408451,41.7464789 58.236338,35.7628169 L81.2664789,35.7628169 C83.4233803,35.7628169 85.2323944,34.0929577 85.2323944,31.7273239 C85.2323944,23.2388732 79.4574648,13.6371831 67.7684507,13.6371831 C57.2622535,13.6371831 49.8174648,22.2647887 49.8174648,32.7709859 L49.8174648,32.9101408 C49.8174648,44.2512676 58.0276056,51.9743662 68.6729577,51.9743662 Z M77.0222535,30.1966197 L58.1667606,30.1966197 C58.9321127,24.4912676 62.5501408,20.5253521 67.6988732,20.5253521 C73.2650704,20.5253521 76.4656338,24.7695775 77.0222535,30.1966197 Z M122.66507,51.4873239 C125.030704,51.4873239 126.839718,49.6783099 126.839718,47.3126761 L126.839718,27.691831 C126.839718,19.2033803 122.038873,13.6371831 113.759155,13.6371831 C108.053803,13.6371831 104.644507,16.6290141 102.278873,20.0383099 L102.278873,18.2292958 C102.278873,15.863662 100.400282,13.9850704 98.0346479,13.9850704 C95.6690141,13.9850704 93.86,15.863662 93.86,18.2292958 L93.86,47.3126761 C93.86,49.6783099 95.7385915,51.4873239 98.0346479,51.4873239 C100.400282,51.4873239 102.278873,49.6783099 102.278873,47.3126761 L102.278873,30.4053521 C102.278873,24.7 105.688169,21.2907042 110.558592,21.2907042 C115.568169,21.2907042 118.420845,24.5608451 118.420845,30.2661972 L118.420845,47.3126761 C118.420845,49.6783099 120.299437,51.4873239 122.66507,51.4873239 Z M149.313239,51.7656338 C151.539718,51.7656338 153.279155,51.4177465 155.088169,50.7915493 C156.270986,50.304507 157.314648,49.0521127 157.314648,47.5214085 C157.314648,45.5732394 155.644789,44.0425352 153.766197,44.0425352 C153.487887,44.0425352 152.652958,44.2512676 151.678873,44.2512676 C148.826197,44.2512676 147.156338,42.9292958 147.156338,39.6591549 L147.156338,21.6385915 L153.766197,21.6385915 C155.783944,21.6385915 157.453803,20.0383099 157.453803,18.0205634 C157.453803,16.0028169 155.783944,14.4025352 153.766197,14.4025352 L147.156338,14.4025352 L147.156338,8.14056338 C147.156338,5.84450704 145.277746,3.96591549 142.98169,3.96591549 C140.616056,3.96591549 138.737465,5.84450704 138.737465,8.14056338 L138.737465,14.4025352 L137.345915,14.4025352 C135.328169,14.4025352 133.727887,16.0028169 133.727887,18.0205634 C133.727887,20.0383099 135.328169,21.6385915 137.345915,21.6385915 L138.737465,21.6385915 L138.737465,40.9811268 C138.737465,49.0521127 143.120845,51.7656338 149.313239,51.7656338 Z M169.769014,51.4873239 C172.134648,51.4873239 174.013239,49.6087324 174.013239,47.3126761 L174.013239,36.4585915 C174.013239,27.7614085 178.11831,23.1692958 184.101972,22.1256338 C185.980563,21.7777465 187.44169,20.3166197 187.44169,18.0901408 C187.44169,15.6549296 185.910986,13.915493 183.267042,13.915493 C179.579437,13.915493 175.961408,17.3943662 174.013239,21.9864789 L174.013239,18.2292958 C174.013239,15.863662 172.134648,13.9850704 169.769014,13.9850704 C167.40338,13.9850704 165.594366,15.863662 165.594366,18.2292958 L165.594366,47.3126761 C165.594366,49.6783099 167.472958,51.4873239 169.769014,51.4873239 Z M198.991549,9.11464789 C201.70507,9.11464789 203.792394,7.44478873 203.792394,4.94 L203.792394,4.52253521 C203.792394,2.01774648 201.70507,0.417464789 198.991549,0.417464789 C196.278028,0.417464789 194.190704,2.01774648 194.190704,4.52253521 L194.190704,4.94 C194.190704,7.44478873 196.278028,9.11464789 198.991549,9.11464789 Z M198.991549,51.4873239 C201.357183,51.4873239 203.235775,49.6783099 203.235775,47.3126761 L203.235775,18.2292958 C203.235775,15.863662 201.357183,13.9850704 198.991549,13.9850704 C196.625915,13.9850704 194.816901,15.863662 194.816901,18.2292958 L194.816901,47.3126761 C194.816901,49.6783099 196.695493,51.4873239 198.991549,51.4873239 Z M231.205915,51.9743662 C237.328732,51.9743662 241.294648,49.8870423 244.564789,46.7560563 C245.330141,46.1298592 245.747606,45.2253521 245.747606,44.1121127 C245.747606,42.0943662 244.147324,40.424507 242.129577,40.424507 C241.155493,40.424507 240.320563,40.9115493 239.833521,41.3290141 C237.537465,43.2771831 234.963099,44.5991549 231.62338,44.5991549 C225.152676,44.5991549 220.630141,39.3808451 220.630141,32.8405634 L220.630141,32.7014085 C220.630141,26.3002817 225.152676,21.0123944 231.275493,21.0123944 C234.615211,21.0123944 236.980845,22.3343662 239.137746,24.1433803 C239.694366,24.5608451 240.598873,24.9783099 241.642535,24.9783099 C243.799437,24.9783099 245.538873,23.3084507 245.538873,21.1515493 C245.538873,19.76 244.773521,18.716338 244.216901,18.2292958 C241.085915,15.5157746 237.12,13.6371831 231.34507,13.6371831 C220.282254,13.6371831 212.211268,22.4039437 212.211268,32.8405634 L212.211268,32.9797183 C212.211268,43.416338 220.282254,51.9743662 231.205915,51.9743662 Z M298.417746,51.9743662 C306.28,51.9743662 311.49831,49.4695775 316.090423,45.4340845 C316.855775,44.7383099 317.481972,43.6946479 317.481972,42.3726761 C317.481972,40.2157746 315.60338,38.4067606 313.446479,38.4067606 C312.402817,38.4067606 311.49831,38.8242254 310.872113,39.3808451 C307.323662,42.3726761 303.844789,44.0425352 298.696056,44.0425352 C289.372676,44.0425352 282.623662,36.3194366 282.623662,26.7873239 L282.623662,26.648169 C282.623662,17.1160563 289.442254,9.46253521 298.696056,9.46253521 C303.357746,9.46253521 306.975775,11.1323944 310.315493,13.8459155 C310.872113,14.2633803 311.707042,14.6808451 312.889859,14.6808451 C315.255493,14.6808451 317.134085,12.871831 317.134085,10.5061972 C317.134085,8.97549296 316.368732,7.79267606 315.464225,7.09690141 C311.22,3.82676056 306.28,1.60028169 298.765634,1.60028169 C284.015211,1.60028169 273.648169,12.9414085 273.648169,26.7873239 L273.648169,26.9264789 C273.648169,40.9115493 284.223944,51.9743662 298.417746,51.9743662 Z M336.75493,51.9047887 C342.390704,51.9047887 346.217465,49.5391549 348.722254,46.5473239 L348.722254,47.9388732 C348.722254,49.8174648 350.392113,51.4873239 352.827324,51.4873239 C355.12338,51.4873239 356.932394,49.7478873 356.932394,47.451831 L356.932394,29.3616901 C356.932394,24.5608451 355.68,20.664507 352.966479,18.0205634 C350.392113,15.3766197 346.287042,13.915493 340.790423,13.915493 C335.989577,13.915493 332.441127,14.7504225 328.962254,16.0723944 C327.709859,16.5594366 326.666197,17.8814085 326.666197,19.4121127 C326.666197,21.3602817 328.266479,22.8909859 330.214648,22.8909859 C330.632113,22.8909859 331.049577,22.8214085 331.53662,22.6822535 C333.832676,21.7777465 336.47662,21.2211268 339.677183,21.2211268 C345.591268,21.2211268 348.791831,24.0042254 348.791831,29.2225352 L348.791831,30.1270423 C345.939155,29.2225352 343.016901,28.596338 338.911831,28.596338 C329.936338,28.596338 323.743944,32.4926761 323.743944,40.424507 L323.743944,40.563662 C323.743944,47.9388732 329.866761,51.9047887 336.75493,51.9047887 Z M339.120563,45.7819718 C335.08507,45.7819718 331.954085,43.7642254 331.954085,40.2157746 L331.954085,40.0766197 C331.954085,36.2498592 335.154648,33.9538028 340.58169,33.9538028 C343.921408,33.9538028 346.774085,34.58 348.930986,35.4149296 L348.930986,37.9197183 C348.930986,42.5814085 344.686761,45.7819718 339.120563,45.7819718 Z M379.614648,51.8352113 C387.268169,51.8352113 393.251831,48.0084507 393.251831,40.2853521 L393.251831,40.1461972 C393.251831,33.536338 387.198592,31.1011268 381.841127,29.4312676 C377.527324,28.0397183 373.561408,26.9264789 373.561408,24.2129577 L373.561408,24.0738028 C373.561408,21.9864789 375.44,20.4557746 378.710141,20.4557746 C381.284507,20.4557746 384.345915,21.4298592 387.337746,22.9605634 C387.894366,23.2388732 388.311831,23.3780282 389.007606,23.3780282 C390.955775,23.3780282 392.486479,21.9169014 392.486479,19.9687324 C392.486479,18.5076056 391.651549,17.3943662 390.468732,16.768169 C386.920282,14.8895775 382.815211,13.776338 378.918873,13.776338 C371.613239,13.776338 365.83831,18.0205634 365.83831,24.9783099 L365.83831,25.1174648 C365.83831,32.1447887 371.891549,34.3712676 377.318592,35.9019718 C381.632394,37.2239437 385.528732,38.1980282 385.528732,41.0507042 L385.528732,41.1898592 C385.528732,43.6250704 383.441408,45.1557746 379.82338,45.1557746 C376.483662,45.1557746 372.796056,43.9729577 369.247606,41.6073239 C368.760563,41.3290141 368.134366,41.1202817 367.438592,41.1202817 C365.490423,41.1202817 364.029296,42.6509859 364.029296,44.5295775 C364.029296,45.9211268 364.72507,46.9647887 365.629577,47.451831 C369.873803,50.3740845 374.952958,51.8352113 379.614648,51.8352113 Z M430.684507,51.4873239 C433.050141,51.4873239 434.859155,49.6783099 434.859155,47.3126761 L434.859155,27.691831 C434.859155,19.2033803 430.05831,13.6371831 421.778592,13.6371831 C416.073239,13.6371831 412.663944,16.6290141 410.29831,20.0383099 L410.29831,4.17464789 C410.29831,1.87859155 408.419718,4.16317997e-15 406.054085,4.16317997e-15 C403.688451,4.16317997e-15 401.879437,1.87859155 401.879437,4.17464789 L401.879437,47.3126761 C401.879437,49.6783099 403.758028,51.4873239 406.054085,51.4873239 C408.419718,51.4873239 410.29831,49.6783099 410.29831,47.3126761 L410.29831,30.4053521 C410.29831,24.7 413.707606,21.2907042 418.578028,21.2907042 C423.587606,21.2907042 426.440282,24.5608451 426.440282,30.2661972 L426.440282,47.3126761 C426.440282,49.6783099 428.318873,51.4873239 430.684507,51.4873239 Z" id="path-1"></path>
        <path d="M463.755775,51.5056338 C464.810423,51.5056338 465.777183,50.4509859 465.777183,49.3523944 C465.777183,48.5174648 465.425634,47.9461972 464.89831,47.5507042 C459.317465,43.6397183 456.636901,39.2014085 456.636901,32.9614085 C456.636901,26.7214085 459.317465,22.2830986 464.89831,18.3721127 C465.425634,17.9766197 465.777183,17.4053521 465.777183,16.5704225 C465.777183,15.471831 464.810423,14.4171831 463.755775,14.4171831 C463.184507,14.4171831 462.657183,14.5929577 462.481408,14.7247887 C455.230704,19.0752113 451.319718,25.0076056 451.319718,32.9614085 C451.319718,40.9152113 455.230704,46.8476056 462.481408,51.1980282 C462.657183,51.3298592 463.184507,51.5056338 463.755775,51.5056338 Z M484.848732,46.1005634 C489.814366,46.1005634 493.110141,44.5185915 496.010423,41.9698592 C496.493803,41.5304225 496.889296,40.8712676 496.889296,40.036338 C496.889296,38.6740845 495.702817,37.5315493 494.340563,37.5315493 C493.681408,37.5315493 493.110141,37.7952113 492.714648,38.1467606 C490.473521,40.036338 488.276338,41.0909859 485.024507,41.0909859 C479.136056,41.0909859 474.873521,36.2132394 474.873521,30.1929577 L474.873521,30.1050704 C474.873521,24.0847887 479.18,19.2509859 485.024507,19.2509859 C487.968732,19.2509859 490.253803,20.3056338 492.363099,22.0194366 C492.714648,22.2830986 493.241972,22.5467606 493.989014,22.5467606 C495.483099,22.5467606 496.669577,21.4042254 496.669577,19.9101408 C496.669577,18.9433803 496.186197,18.196338 495.61493,17.7569014 C492.934366,15.6915493 489.814366,14.2853521 485.068451,14.2853521 C475.752394,14.2853521 469.204789,21.448169 469.204789,30.1929577 L469.204789,30.2808451 C469.204789,39.1135211 475.884225,46.1005634 484.848732,46.1005634 Z M505.678028,45.7929577 C507.128169,45.7929577 508.314648,44.6064789 508.314648,43.156338 L508.314648,23.6453521 L524.134366,44.1230986 C524.881408,45.0898592 525.672394,45.7490141 526.946761,45.7490141 L527.166479,45.7490141 C528.660563,45.7490141 529.803099,44.5625352 529.803099,43.0684507 L529.803099,17.2295775 C529.803099,15.7794366 528.61662,14.5929577 527.122535,14.5929577 C525.672394,14.5929577 524.485915,15.7794366 524.485915,17.2295775 L524.485915,36.1253521 L509.105634,16.2188732 C508.358592,15.2960563 507.611549,14.6369014 506.293239,14.6369014 L505.721972,14.6369014 C504.183944,14.6369014 502.997465,15.8673239 502.997465,17.3614085 L502.997465,43.156338 C502.997465,44.6064789 504.183944,45.7929577 505.678028,45.7929577 Z M548.479155,46.0126761 C554.938873,46.0126761 559.46507,42.5850704 559.46507,36.8284507 L559.46507,36.7405634 C559.46507,31.6430986 556.125352,29.3140845 549.62169,27.7321127 C543.689296,26.3259155 542.283099,25.2712676 542.283099,22.8983099 L542.283099,22.8104225 C542.283099,20.7890141 544.128732,19.1630986 547.292676,19.1630986 C549.709577,19.1630986 551.994648,19.9540845 554.367606,21.4921127 C554.807042,21.7557746 555.246479,21.8876056 555.773803,21.8876056 C557.18,21.8876056 558.322535,20.7890141 558.322535,19.3828169 C558.322535,18.328169 557.751268,17.5811268 557.136056,17.2295775 C554.367606,15.3839437 551.247606,14.3732394 547.380563,14.3732394 C541.272394,14.3732394 536.878028,18.0205634 536.878028,23.2938028 L536.878028,23.3816901 C536.878028,29.0504225 540.569296,30.9839437 547.116901,32.5659155 C552.829577,33.8842254 554.06,35.0707042 554.06,37.2678873 L554.06,37.3557746 C554.06,39.6408451 551.950704,41.2228169 548.610986,41.2228169 C545.271268,41.2228169 542.546761,40.0802817 539.998028,38.0588732 C539.646479,37.7952113 539.163099,37.575493 538.416056,37.575493 C537.009859,37.575493 535.867324,38.6740845 535.867324,40.0802817 C535.867324,40.9591549 536.306761,41.7061972 536.921972,42.1456338 C540.349577,44.6943662 544.304507,46.0126761 548.479155,46.0126761 Z M566.012676,51.5056338 C566.627887,51.5056338 567.111268,51.3298592 567.287042,51.1980282 C574.58169,46.8476056 578.492676,40.9152113 578.492676,32.9614085 C578.492676,25.0076056 574.58169,19.0752113 567.287042,14.7247887 C567.111268,14.5929577 566.627887,14.4171831 566.012676,14.4171831 C564.958028,14.4171831 563.991268,15.471831 563.991268,16.5704225 C563.991268,17.4053521 564.386761,17.9766197 564.914085,18.3721127 C570.450986,22.2830986 573.175493,26.7214085 573.175493,32.9614085 C573.175493,39.2014085 570.450986,43.6397183 564.914085,47.5507042 C564.386761,47.9461972 563.991268,48.5174648 563.991268,49.3523944 C563.991268,50.4509859 564.958028,51.5056338 566.012676,51.5056338 Z" id="path-2"></path>
    </defs>
    <g id="Page-1" stroke="none" stroke-width="1" fill="none" fill-rule="evenodd">
        <g id="CNS_Text" fill-rule="nonzero">
            <g id="CentricCash">
                <use fill="#4A4A4A" xlink:href="#path-1"></use>
                <use fill="#FFFFFF" xlink:href="#path-1"></use>
            </g>
            <g id="(CNS)" opacity="0.59">
                <use fill="#4A4A4A" xlink:href="#path-2"></use>
                <use fill="#FFFFFF" xlink:href="#path-2"></use>
            </g>
        </g>
    </g>
</svg>