<?xml version="1.0" encoding="UTF-8"?>
<svg width="21px" height="27px" viewBox="0 0 21 27" version="1.1" xmlns="http://www.w3.org/2000/svg" xmlns:xlink="http://www.w3.org/1999/xlink">
    <g id="Centric-Project" stroke="none" stroke-width="1" fill="none" fill-rule="evenodd">
        <g id="centricswap.com---Drop-down-/-Error-Message" transform="translate(-725.000000, -519.000000)" fill="#FFFFFF" fill-rule="nonzero">
            <g id="interface" transform="translate(709.000000, 519.000000)">
                <path d="M36.6831773,12.6801818 L25.5665926,0.407454545 C25.3294388,0.147272727 24.9984116,0 24.6476216,0 L17.2365651,0 C16.7499057,0 16.3077127,0.284727273 16.1076142,0.726545455 C15.909986,1.17081818 15.9915076,1.68872727 16.3175941,2.04709091 L26.6906028,13.5 L16.3175941,24.9504545 C15.9915076,25.3112727 15.9075156,25.8291818 16.1076142,26.271 C16.3077127,26.7152727 16.7499057,27 17.2365651,27 L24.6476216,27 C24.9984116,27 25.3294388,26.8502727 25.5665926,26.595 L36.6831773,14.3222727 C37.1056076,13.8559091 37.1056076,13.1440909 36.6831773,12.6801818 Z" id="Path"></path>
            </g>
        </g>
    </g>
</svg>