<svg width="56px" height="42px" viewBox="0 0 56 42" version="1.1" xmlns="http://www.w3.org/2000/svg" xmlns:xlink="http://www.w3.org/1999/xlink">
    <g id="Page-1" stroke="none" stroke-width="1" fill="none" fill-rule="evenodd">
        <g id="SwapIcon" transform="translate(-2.325236, -6.199047)" fill="#FFFFFF" fill-rule="nonzero">
            <path d="M50.9220245,39.6511259 L50.9220245,39.7445325 C50.9134312,39.7558148 50.9066517,39.7684275 50.9019416,39.7818951 C50.8353984,40.0875586 50.6176857,40.3354737 50.3277507,40.4357413 C50.2013656,40.4801202 50.0676612,40.4985308 49.9343067,40.4899171 C49.803559,40.4781565 49.6738672,40.4562993 49.5463399,40.4245325 C49.4897424,40.4133237 49.4313191,40.4039831 49.3756345,40.389038 C49.2213606,40.3479391 49.0679996,40.304038 48.9146387,40.261071 C48.8616926,40.2461259 48.8087465,40.2339831 48.7567133,40.219038 C48.6060909,40.176071 48.4563814,40.1312358 48.305759,40.0892028 C48.225427,40.0667853 48.1432694,40.0481039 48.0629374,40.0256864 L47.6548876,39.9098622 C47.6065059,39.8958512 47.5562984,39.8855765 47.5070038,39.8715655 C47.2532279,39.7949721 47.0003648,39.7165105 46.7465889,39.6427193 C46.5713191,39.5922798 46.3933108,39.5493127 46.2180411,39.5026094 C46.1353484,39.4643618 46.0482288,39.4370538 45.958788,39.4213457 C45.7606967,39.4213457 45.5936428,39.3279391 45.4110702,39.2746973 C45.2129789,39.2139831 45.0112362,39.1644776 44.8094934,39.1187083 C44.7071825,39.0817524 44.5948549,39.1358892 44.5575432,39.2401369 C44.5365474,39.2915105 44.4982071,39.3335435 44.4762984,39.3858512 C44.4224395,39.510082 44.372232,39.6361809 44.3220245,39.7594776 C44.2937258,39.8314006 44.2663399,39.9042578 44.2380411,39.9761809 C44.2097424,40.0481039 44.1887465,40.1153567 44.1577092,40.1816754 C44.0323427,40.4494409 43.9060633,40.7165838 43.778871,40.9831039 C43.6875847,41.1699171 43.6017756,41.3501918 43.5050121,41.5314006 C43.4301573,41.6761809 43.3470868,41.8172248 43.2685806,41.9601369 C43.2685806,41.9657413 43.2685806,41.976016 43.2685806,41.9816204 C43.2393689,42.0395325 43.2101573,42.0974446 43.1772943,42.1534885 C43.1444312,42.2095325 43.1133938,42.2468951 43.0860079,42.3029391 C43.0084146,42.4495875 42.9408627,42.6018402 42.8559665,42.7447523 C42.7491615,42.925027 42.6268378,43.095027 42.5163814,43.2734336 C42.4798669,43.3313457 42.4679996,43.406071 42.4305723,43.4602468 C42.2160494,43.7787633 41.9969623,44.0935435 41.7815266,44.4111259 C41.6491615,44.6035435 41.5222735,44.7996973 41.3880826,44.9911809 C41.2803648,45.1443677 41.1699084,45.2956864 41.0548876,45.4423347 C40.9106552,45.6291479 40.7609457,45.8038182 40.6130619,45.9822248 C40.3565474,46.2923347 40.1027714,46.6033787 39.8416926,46.9078842 C39.7029374,47.0694776 39.5495764,47.2189281 39.4035183,47.3749171 C39.2090785,47.5813457 39.0219416,47.7933787 38.8201988,47.9923347 C38.5509042,48.2585435 38.272481,48.5144776 37.9986221,48.7722798 C37.8297424,48.9301369 37.6617756,49.0907962 37.4837673,49.2393127 C37.1405308,49.5195325 36.7909042,49.7997523 36.4431034,50.0715655 C36.2660079,50.2116754 36.0879996,50.3517853 35.905427,50.4825545 C35.739286,50.603049 35.5667548,50.7132688 35.3951366,50.8262907 C35.3403648,50.8617853 35.2810287,50.8907413 35.2262569,50.9281039 C34.9441822,51.1149171 34.6675847,51.3166754 34.3800328,51.496016 C34.1317341,51.6501369 33.8624395,51.7687633 33.618705,51.9284885 C33.4160494,52.0601918 33.2252611,52.2087083 32.9860909,52.2647523 C32.972752,52.2706019 32.960179,52.2781327 32.9486635,52.2871699 C32.6894104,52.430082 32.4356345,52.5814006 32.1709042,52.7121699 C31.8733108,52.8588182 31.5675017,52.9867853 31.265344,53.1212907 C31.1430204,53.1764006 31.018871,53.2287083 30.8947216,53.2791479 C30.6682813,53.3890603 30.434631,53.4826937 30.1954685,53.5593677 C29.9626884,53.6191479 29.7636843,53.7844776 29.5117341,53.7732688 C29.4953026,53.7732688 29.4779582,53.7863457 29.4615266,53.7947523 L29.1876677,53.9395325 L29.1438503,53.9395325 C29.052564,53.8461259 29.0233523,53.7732688 29.0972943,53.6593127 C29.2397009,53.4482138 29.2232694,53.1922798 29.3373772,52.9615655 C29.4514851,52.7308512 29.4825225,52.4581039 29.5436843,52.2021699 C29.5948046,51.9892028 29.6401435,51.774679 29.6797009,51.5585984 C29.718954,51.3465655 29.7299084,51.12706 29.7837673,50.9196973 C29.8477109,50.6592165 29.8868425,50.3930098 29.9006138,50.1248072 C29.932564,49.6232138 29.9864229,49.1225545 29.9919001,48.620027 C29.999203,48.1772798 29.9626884,47.7335984 29.9362154,47.2908512 C29.9133938,46.9265655 29.8869208,46.5604116 29.8449291,46.197994 C29.8145876,45.9692893 29.7700719,45.7427889 29.7116511,45.5198622 C29.6594352,45.3751782 29.7230089,45.2135626 29.8586221,45.1462358 C29.9754685,45.0743127 30.0932279,45.0042578 30.2091615,44.9304666 L31.1640162,44.3261259 C31.2416096,44.2775545 31.3246801,44.2392578 31.3958835,44.1841479 C31.5227714,44.0851369 31.6414436,43.9767853 31.765593,43.874038 C32.1033523,43.5938182 32.4429374,43.322005 32.7779582,43.0399171 C32.9148876,42.9240929 33.0408627,42.7942578 33.1695764,42.6662907 C33.2982901,42.5383237 33.4169623,42.4262358 33.5347216,42.3038732 C33.652481,42.1815105 33.7437673,42.0824995 33.8478337,41.9713457 C34.0304063,41.777994 34.2129789,41.5865105 34.3873357,41.3884885 C34.4877507,41.2764006 34.5699084,41.1493677 34.6666718,41.0326094 C34.7497424,40.9307962 34.8492445,40.8392578 34.9250121,40.7346424 C35.0747216,40.5375545 35.2153026,40.3339281 35.3613606,40.134038 C35.4289125,40.0406314 35.5065059,39.9565655 35.5685806,39.8603567 C35.6598669,39.7155765 35.7511532,39.5623896 35.8424395,39.4148072 C35.9675017,39.2149171 36.0980411,39.0187633 36.2203648,38.8179391 C36.3262569,38.6451369 36.4239333,38.4676644 36.5243482,38.2911259 C36.5864229,38.1827743 36.6539747,38.0772248 36.7069208,37.9632688 C36.7918171,37.7764556 36.865759,37.5812358 36.9460909,37.3897523 C36.9566181,37.3660375 36.9704555,37.3440127 36.9871698,37.3243677 C37.1578752,37.130082 37.0145557,36.9442028 36.8091615,36.9059061 C36.6448461,36.875082 36.4796179,36.8451918 36.3180411,36.8003567 C36.0314021,36.720027 35.7484146,36.6228842 35.4608627,36.5416204 C35.0646801,36.4295325 34.6666718,36.3249171 34.2686635,36.2184336 C33.9436843,36.1315655 33.6177922,36.0484336 33.2919001,35.9615655 C33.2645142,35.955027 33.2398669,35.9354116 33.2115681,35.927005 C33.1202818,35.8961809 33.0198669,35.8634885 32.9221905,35.8335984 C32.8245142,35.8037083 32.7031034,35.785027 32.5944727,35.756071 C32.5077923,35.7217751 32.4182763,35.6955157 32.3270038,35.6776094 C32.0709988,35.6601327 31.8264942,35.5622773 31.6268378,35.3973896 C31.3064229,35.1386534 31.2954685,34.5726094 31.4260079,34.269038 C31.4965375,34.1219024 31.5981941,33.9926779 31.7236013,33.8907413 C31.858705,33.7693127 31.9737258,33.6235984 32.1015266,33.4918951 C35.8533938,29.6304666 39.5148876,25.6774995 43.2676677,21.816071 C43.3826884,21.6974446 43.5013606,21.5825545 43.6154685,21.462994 C43.7688295,21.3023347 43.9185391,21.137005 44.0719001,20.9754116 C44.2060909,20.8353017 44.352149,20.7054666 44.4781241,20.5569501 C44.6260401,20.3615258 44.8167877,20.2044235 45.0349706,20.0983237 C45.1901573,20.0338732 45.3416926,19.9647523 45.5270038,20.0207962 C45.6807219,20.0625873 45.8237025,20.1381286 45.9460079,20.2421699 C46.1064926,20.3762138 46.2152012,20.5642515 46.2527299,20.7727193 C46.2769949,20.8739099 46.3074844,20.9734305 46.3440162,21.0706864 C46.3549706,21.1052468 46.3759665,21.1379391 46.3841822,21.1743677 C46.4581241,21.5115655 46.5247631,21.8506314 46.6050951,22.1868951 C46.7064229,22.6146973 46.8177922,23.0406314 46.9273357,23.4674995 C46.9693274,23.6281589 47.0186221,23.7869501 47.0624395,23.9476094 C47.0797839,24.0157962 47.0825225,24.0886534 47.0998669,24.1568402 C47.1957175,24.5304666 47.2961324,24.8975545 47.3901573,25.2683787 C47.4714021,25.5887633 47.5435183,25.910082 47.6229374,26.2304666 C47.6868378,26.4901369 47.7571283,26.7488732 47.8228544,27.0085435 C47.8885806,27.2682138 47.958871,27.5493677 48.0282486,27.8193127 C48.0976262,28.0892578 48.1688295,28.3507962 48.2327299,28.617005 C48.3066718,28.9233787 48.3714851,29.2316204 48.445427,29.53706 C48.4819416,29.6846424 48.5367133,29.8275545 48.5750536,29.9751369 C48.7101573,30.5234336 48.8397839,31.0735984 48.9758005,31.6218951 C49.0488295,31.9142578 49.1401158,32.2019501 49.2094934,32.4952468 C49.278871,32.7885435 49.3007797,33.0762358 49.4148876,33.348049 C49.422854,33.3729031 49.4280597,33.3985961 49.4304063,33.4246424 C49.4943067,33.7151369 49.5554685,34.0056314 49.6248461,34.2942578 C49.6841822,34.5361809 49.7553855,34.7753017 49.8183731,35.0162907 C49.8749706,35.2339281 49.9224395,35.4543677 49.9826884,35.6701369 C50.0566304,35.941016 50.1497424,36.2072248 50.2154685,36.4799721 C50.3012777,36.8367853 50.3606138,37.201071 50.4473357,37.5578842 C50.5267548,37.8838732 50.6518171,38.2005215 50.712066,38.5293127 C50.772315,38.8581039 50.9238503,39.1924995 50.9019416,39.5483787 C50.9038859,39.583423 50.9106467,39.6180121 50.9220245,39.6511259 L50.9220245,39.6511259 Z" id="Path" transform="translate(39.988719, 36.969858) rotate(63.000000) translate(-39.988719, -36.969858) "></path>
            <path d="M14.4996901,33.9453606 L14.4334139,33.9453606 C14.3784716,33.9059977 14.3206255,33.8707479 14.2603596,33.839906 C13.9842089,33.7217242 13.78446,33.5444515 13.7080583,33.2426333 C12.9035395,30.0717242 12.0858268,26.9044515 11.2549202,23.7408151 C10.8480583,22.1826333 10.4415032,20.6241485 10.0352549,19.0653606 C9.67717963,17.6926333 9.11475286,16.238997 9.0024516,14.8217242 C8.99428146,14.7391365 9.00660312,14.6558262 9.03835118,14.578997 C9.12303737,14.3971788 9.22797461,14.2153606 9.42496206,14.1244515 C9.56610458,14.0459469 9.72350744,14.0002441 9.88521311,13.9908151 C10.6786859,13.9717242 11.5890625,14.379906 12.3438742,14.5835424 L14.2382675,15.0944515 C14.9857152,15.2962697 15.2443763,15.5444515 15.5831211,14.8053606 C15.6751713,14.6017242 15.7764265,14.399906 15.8693972,14.1953606 C17.3382955,10.9907288 19.481894,8.13207877 22.157347,5.80990605 C23.5054076,4.63160604 24.9817258,3.60471347 26.559188,2.74808786 C26.9457989,2.53899696 30.9868031,0.894451501 30.9868031,1.00536059 L30.9868031,1.13626968 C30.9344857,1.22666279 30.889249,1.32087723 30.8514893,1.41808786 C30.7760081,1.6644515 30.7134139,1.9144515 30.6462173,2.16263332 C30.0429617,4.36195538 29.9579415,6.66854118 30.3976817,8.90536059 C30.4897319,9.3744515 30.2264683,9.42808786 29.8895646,9.63263332 C28.4431754,10.5206597 27.1195012,11.5901846 25.9516566,12.8144515 C24.7301503,14.1108151 24.0121587,15.5844515 23.0345855,17.0308151 C22.9241252,17.1935424 22.9526608,17.3680879 23.1395227,17.439906 C24.7209453,18.0471788 26.6724098,18.0408151 28.1691462,18.7862697 C29.9374307,19.6662697 26.5812801,22.149906 25.9415311,22.7980879 C22.4298156,26.2662697 18.9144181,29.7580879 15.5223679,33.3435424 C15.317096,33.559906 15.1182675,33.7826333 14.8126608,33.8653606 L14.4996901,33.9453606 Z" id="Path" transform="translate(19.993402, 17.472680) rotate(63.000000) translate(-19.993402, -17.472680) "></path>
        </g>
    </g>
</svg>