<?xml version="1.0" encoding="UTF-8"?>
<svg width="185px" height="62px" viewBox="0 0 185 62" version="1.1" xmlns="http://www.w3.org/2000/svg" xmlns:xlink="http://www.w3.org/1999/xlink">
    <defs>
        <path d="M20.45,50.7 C30.74,50.7 37.95,45.24 37.95,36.07 L37.95,35.93 C37.95,27.81 32.63,24.1 22.27,21.58 C12.82,19.34 10.58,17.66 10.58,13.88 L10.58,13.74 C10.58,10.52 13.52,7.93 18.56,7.93 C22.41,7.93 26.05,9.19 29.83,11.64 C30.53,12.06 31.23,12.27 32.07,12.27 C34.31,12.27 36.13,10.52 36.13,8.28 C36.13,6.6 35.22,5.41 34.24,4.85 C29.83,1.91 24.86,0.3 18.7,0.3 C8.97,0.3 1.97,6.11 1.97,14.51 L1.97,14.65 C1.97,23.68 7.85,26.76 18.28,29.28 C27.38,31.38 29.34,33.27 29.34,36.77 L29.34,36.91 C29.34,40.55 25.98,43.07 20.66,43.07 C15.34,43.07 11,41.25 6.94,38.03 C6.38,37.61 5.61,37.26 4.42,37.26 C2.18,37.26 0.36,39.01 0.36,41.25 C0.36,42.65 1.06,43.84 2.04,44.54 C7.5,48.6 13.8,50.7 20.45,50.7 Z M59.09,50.63 C61.12,50.63 62.87,49.44 63.64,46.99 L70.92,25.01 L78.13,46.99 C78.9,49.44 80.65,50.63 82.75,50.63 L83.03,50.63 C85.06,50.63 86.81,49.44 87.72,46.85 L97.8,18.43 C97.94,18.01 98.15,17.17 98.15,16.54 C98.15,14.44 96.47,12.62 94.16,12.62 C91.92,12.62 90.59,14.09 90.03,15.91 L82.82,38.38 L75.54,15.98 C74.91,14.02 73.37,12.62 71.2,12.62 L70.71,12.62 C68.54,12.62 67,14.02 66.37,15.98 L59.16,38.38 L52.02,15.98 C51.39,14.02 49.99,12.62 47.89,12.62 C45.37,12.62 43.76,14.51 43.76,16.54 C43.76,17.24 43.97,18.15 44.18,18.71 L54.12,46.85 C54.96,49.44 56.71,50.63 58.81,50.63 L59.09,50.63 Z M116.07,50.77 C121.74,50.77 125.59,48.39 128.11,45.38 L128.11,46.78 C128.11,48.67 129.79,50.35 132.24,50.35 C134.55,50.35 136.37,48.6 136.37,46.29 L136.37,28.09 C136.37,23.26 135.11,19.34 132.38,16.68 C129.79,14.02 125.66,12.55 120.13,12.55 C115.3,12.55 111.73,13.39 108.23,14.72 C106.97,15.21 105.92,16.54 105.92,18.08 C105.92,20.04 107.53,21.58 109.49,21.58 C109.91,21.58 110.33,21.51 110.82,21.37 C113.13,20.46 115.79,19.9 119.01,19.9 C124.96,19.9 128.18,22.7 128.18,27.95 L128.18,28.86 C125.31,27.95 122.37,27.32 118.24,27.32 C109.21,27.32 102.98,31.24 102.98,39.22 L102.98,39.36 C102.98,46.78 109.14,50.77 116.07,50.77 Z M118.45,44.61 C114.39,44.61 111.24,42.58 111.24,39.01 L111.24,38.87 C111.24,35.02 114.46,32.71 119.92,32.71 C123.28,32.71 126.15,33.34 128.32,34.18 L128.32,36.7 C128.32,41.39 124.05,44.61 118.45,44.61 Z M150.72,61.55 C153.1,61.55 154.99,59.73 154.99,57.35 L154.99,44.26 C157.58,47.69 161.43,50.77 167.59,50.77 C176.34,50.77 184.74,43.84 184.74,31.59 L184.74,31.45 C184.74,19.13 176.27,12.27 167.59,12.27 C161.57,12.27 157.72,15.35 154.99,19.2 L154.99,16.89 C154.99,14.51 153.1,12.62 150.72,12.62 C148.34,12.62 146.52,14.51 146.52,16.89 L146.52,57.35 C146.52,59.73 148.41,61.55 150.72,61.55 Z M165.56,43.42 C159.82,43.42 154.78,38.66 154.78,31.59 L154.78,31.45 C154.78,24.38 159.82,19.62 165.56,19.62 C171.3,19.62 176.13,24.31 176.13,31.45 L176.13,31.59 C176.13,38.87 171.37,43.42 165.56,43.42 Z" id="path-1"></path>
    </defs>
    <g id="Page-1" stroke="none" stroke-width="1" fill="none" fill-rule="evenodd">
        <g id="Swap" fill-rule="nonzero">
            <use fill="#4A4A4A" xlink:href="#path-1"></use>
            <use fill="#FFFFFF" xlink:href="#path-1"></use>
        </g>
    </g>
</svg>