<?xml version="1.0" encoding="UTF-8"?>
<svg id="swap_spinner" width="63px" height="77px" viewBox="0 0 63 77" version="1.1" xmlns="http://www.w3.org/2000/svg" xmlns:xlink="http://www.w3.org/1999/xlink">
    <g stroke="none" stroke-width="1" fill="none" fill-rule="evenodd">
        <g transform="translate(-2.000000, 0.000000)" fill-rule="nonzero">
            <g>
                <g id="cnr_logo" transform="translate(26.000000, 0.000000)">
                    <circle id="Oval" fill="#FFFFFF" cx="18.9886702" cy="18.9886702" r="18.9886702"></circle>
                    <path d="M12.8130197,14.0141367 C12.872946,14.0334905 12.9326035,14.0528443 12.9925298,14.0721982 C13.0696546,14.0501563 13.1537664,14.0412858 13.2220232,14.0036533 C13.7616282,13.7066256 14.2990835,13.4058346 14.8346577,13.1015492 C14.8889407,13.0709056 14.9268312,13.0117688 14.9722462,12.9660723 C14.9918633,12.9214509 15.0117492,12.8770983 15.0313663,12.832477 L15.0337848,12.7451159 C15.0074495,12.6846351 14.9811142,12.6244232 14.9550476,12.5636736 C14.8341202,12.4093805 14.6422487,12.3833065 14.4253855,12.4913655 C14.1246793,12.6416266 13.8180611,12.7811355 13.5251479,12.9451056 C13.2738876,13.085421 13.0325702,13.2458966 12.7977022,13.4125547 C12.6246417,13.535129 12.5958878,13.7111952 12.6945108,13.8668324 C12.7254145,13.9101097 12.7565869,13.9536559 12.7874906,13.9974708 C12.7960899,14.0028469 12.8044204,14.0084918 12.8130197,14.0141367 L12.8130197,14.0141367 Z M12.458568,9.93612055 C12.4677047,9.9078962 12.4771102,9.87967184 12.4859782,9.85171629 C12.4830222,9.80548211 12.4800662,9.75924793 12.4771102,9.71301374 C12.3975668,9.5184001 12.154637,9.49582061 12.0001186,9.56248385 C11.7278976,9.67968212 11.4535266,9.79204194 11.1866801,9.91972354 C10.9907777,10.0135359 10.7900381,10.1051979 10.6427754,10.2764256 C10.5403902,10.3955055 10.5406589,10.5446914 10.6478812,10.6540944 C10.671798,10.6734482 10.6957147,10.6933397 10.7193628,10.7126935 C10.7491915,10.7258649 10.779289,10.7387674 10.8088491,10.75167 C10.8381404,10.7535516 10.8677004,10.7554333 10.8969917,10.7575837 C10.9641736,10.7409179 11.0361926,10.7347354 11.0977313,10.7059734 C11.4150986,10.5573252 11.7319285,10.4073329 12.04419,10.2487389 C12.1855407,10.1769684 12.3521518,10.1363791 12.437876,9.98047311 L12.458568,9.93612055 Z M6.77390372,14.9511852 C6.81878124,14.951454 6.86365875,14.9517228 6.90853627,14.9517228 C7.0197895,14.9060263 7.13614857,14.869469 7.24122107,14.8124827 C7.66285472,14.5845374 8.082876,14.3530977 8.49967255,14.1157443 C8.6090447,14.0533819 8.70390555,13.9646768 8.8054846,13.8880679 L8.85385557,13.770332 C8.86245485,13.7482901 8.87105414,13.7259794 8.87938469,13.7039376 C8.88368434,13.6886158 8.8882527,13.6730252 8.89255235,13.6577034 C8.89201489,13.6426504 8.89174616,13.6278662 8.89120871,13.6128132 C8.87481632,13.5762559 8.85842394,13.5394299 8.84203155,13.5028726 C8.78882348,13.4590577 8.74045251,13.406641 8.68133243,13.3735782 C8.50343474,13.2741209 8.33924216,13.3579876 8.18606741,13.4370158 C7.78485706,13.6442632 7.38794635,13.8593059 6.99184183,14.0762302 C6.81528778,14.1732683 6.65673848,14.2931546 6.55300961,14.4740592 C6.48824625,14.5866879 6.48878371,14.7001229 6.56805836,14.8019994 C6.5927813,14.8350622 6.61723552,14.8678562 6.64195846,14.900919 L6.704572,14.9339818 C6.72741384,14.9398955 6.75052442,14.9455404 6.77390372,14.9511852 L6.77390372,14.9511852 Z M12.0756311,29.1719593 L12.1406632,29.2450739 C12.2099949,29.3141563 12.2790579,29.38297 12.3483897,29.4520525 L12.3537642,29.4568909 C12.3825181,29.4845777 12.4112719,29.5122644 12.4400258,29.54022 L12.4435192,29.5437144 C12.5133884,29.6068832 12.5832576,29.6697832 12.6531268,29.732952 L12.6517831,29.7318768 C12.7122469,29.7848311 12.7721731,29.8377853 12.8323681,29.8904708 L12.8549412,29.9071366 C12.8775144,29.922996 12.9003562,29.9383178 12.9229293,29.9541772 C13.2617949,30.2544306 13.6495688,30.4831822 14.0354617,30.7146219 C14.1058683,30.7570929 14.1859492,30.7837044 14.2617304,30.8173048 C14.2864533,30.8323578 14.311445,30.8479484 14.3364366,30.8632702 C14.3582036,30.8861185 14.3759396,30.9172997 14.4025436,30.9299335 C14.5070787,30.9796621 14.6145697,31.023477 14.7207172,31.0697112 C14.8024104,31.1073437 14.8841036,31.1447074 14.9657968,31.1826086 C15.0413092,31.2116394 15.1168217,31.2404014 15.1923341,31.2694321 C15.2412426,31.2920116 15.290151,31.3148599 15.3390594,31.3374394 C15.3460463,31.3253432 15.3527645,31.3129783 15.3597515,31.3008821 C15.3288478,31.2799155 15.2979441,31.2589488 15.2667717,31.2382509 C15.2213567,31.1955112 15.1759418,31.1525027 15.1305268,31.1097629 C15.1152093,31.0957851 15.0998918,31.0820762 15.0845744,31.0683672 C15.0297539,31.0162193 14.9749335,30.9640715 14.9201131,30.9119236 C14.9096327,30.8947202 14.8991523,30.8769792 14.8886719,30.8597758 C14.8171904,30.7845108 14.7440965,30.7108587 14.6753022,30.6331745 C14.5213213,30.4587211 14.3697589,30.2818485 14.2173903,30.1057823 L14.217659,30.1060511 L14.1563891,30.0289045 C14.1448338,30.0108947 14.1330098,29.9926161 14.1214545,29.9746062 C14.1077494,29.954446 14.0943131,29.9342857 14.0806079,29.9138567 C14.0346555,29.843699 13.9854784,29.7751541 13.9435569,29.7020396 C13.8247792,29.496405 13.7092264,29.28862 13.5923298,29.0816414 C13.5834618,29.0595995 13.5743251,29.0378265 13.5654571,29.0157846 C13.5165487,28.9015431 13.4676402,28.7873017 13.4184631,28.6730603 C13.4117449,28.6445671 13.4066391,28.6152675 13.3975023,28.587312 C13.2303537,28.0655646 13.1231314,27.5333339 13.1142634,26.9841686 C13.1113074,26.7914366 13.1180256,26.5987046 13.1204441,26.4062413 C13.1481231,26.185285 13.1688151,25.9635222 13.2048246,25.7441786 C13.2859803,25.2458171 13.428406,24.7633151 13.6052288,24.2915651 C13.6936402,24.0558246 13.7836639,23.8192776 13.8978732,23.595902 C14.1176924,23.1658166 14.3426174,22.7370752 14.5893093,22.3223116 C14.8308955,21.9164185 15.0791998,21.5113318 15.3659322,21.1374263 C15.8262626,20.5374571 16.3051353,19.9495841 16.8057748,19.3832154 C17.2704049,18.8577048 17.7737317,18.3657946 18.2620098,17.8615195 C18.299363,17.8228118 18.3541834,17.8013075 18.4103475,17.7658254 C18.4240526,17.8254998 18.4321144,17.8609818 18.4399075,17.8964639 C18.4423261,17.9174306 18.4447446,17.9381284 18.4468945,17.9588263 C18.4511941,17.9773737 18.4560312,17.9956523 18.4603308,18.0136622 C18.4605996,18.0195758 18.4627494,18.0244143 18.4675865,18.0279087 C18.4675865,18.0416177 18.4678552,18.0553267 18.4681239,18.0690357 C18.4678552,18.0870455 18.4638243,18.1061305 18.4678552,18.1230651 C18.5764212,18.5781493 18.6847184,19.0335022 18.7959716,19.4880487 C18.8174699,19.576485 18.8569728,19.6584701 18.956402,19.7135748 C18.9684948,19.6700286 18.9768253,19.639385 18.9854246,19.6084726 C19.0058479,19.5563248 19.0262712,19.5039081 19.0466945,19.4514915 C19.0646993,19.4004188 19.0824353,19.3493462 19.10044,19.2982735 C19.1098455,19.2824141 19.1211321,19.2670923 19.128119,19.2501577 C19.3189156,18.7819022 19.5005755,18.3093459 19.7026587,17.8459289 C19.9015171,17.3895007 20.1170367,16.9400615 20.3330937,16.4911598 C20.4615455,16.2253133 20.5996715,15.9634988 20.7434408,15.7054475 C20.9637974,15.3089625 21.1828104,14.9108647 21.4211718,14.5254007 C21.710054,14.058758 22.0145224,13.6012547 22.3206032,13.1456329 C22.5425722,12.8152736 22.7782464,12.4940535 23.0077398,12.1685326 L23.014458,12.1704143 L23.0184889,12.1645006 C23.0450929,12.1279433 23.0716969,12.0911173 23.0980322,12.0542912 C23.1176494,12.024454 23.1369978,11.994348 23.1560774,11.9645109 C23.1783818,11.9346737 23.2004175,11.9045677 23.2227219,11.8749993 C23.2297088,11.8607528 23.2366957,11.846775 23.2434139,11.8325284 C23.2619561,11.8096801 23.2802296,11.7871006 23.2987718,11.7642523 C23.3471428,11.7091477 23.3957825,11.6543118 23.4444222,11.5994759 C23.4352854,11.5868421 23.4264174,11.5742084 23.4175494,11.5613058 C19.9337644,12.1376202 16.6354015,13.2203603 13.6458066,15.1457989 C13.6482252,15.1592391 13.6506437,15.1726792 13.6530623,15.1858506 L13.9954213,15.1858506 C14.0325057,15.1858506 14.0693214,15.1858506 14.1061371,15.1861194 C14.1287102,15.1863882 14.1512833,15.1869258 14.1735877,15.1871946 C14.2179278,15.1820873 14.2622678,15.1767113 14.3063392,15.1713352 C14.3509479,15.1788617 14.395288,15.1863882 14.4398968,15.1939147 C14.4917612,15.1949899 14.5436256,15.1957963 14.5954901,15.1966027 C14.8642177,15.218107 15.1332141,15.2377296 15.401673,15.2611155 C15.5360368,15.2729429 15.6698631,15.2909527 15.8039582,15.3065433 C15.8020771,15.3283164 15.7999273,15.3500895 15.7977775,15.3718625 C15.76768,15.4008933 15.7373138,15.4299241 15.7072163,15.4589548 C15.6787312,15.4898672 15.650246,15.5210484 15.6217609,15.5522296 C15.6136991,15.5592185 15.6056372,15.5659386 15.5973067,15.5729275 C15.5798394,15.58583 15.5594161,15.5963134 15.5454422,15.6124416 C15.0950547,16.1228992 14.6422487,16.6314752 14.1958921,17.1454272 C13.4832264,17.9652776 12.8248437,18.8262548 12.2363302,19.7399175 C11.8851032,20.2850507 11.544894,20.8377105 11.2879904,21.4341852 C11.1022996,21.8653458 10.9335387,22.3051082 10.7803639,22.7491713 C10.6841594,23.0279204 10.6161714,23.3190345 10.5624258,23.609611 C10.5105614,23.8923921 10.4930941,24.1816246 10.4603093,24.4684378 L10.4576221,24.514672 C10.4492915,24.5496164 10.4345115,24.5845608 10.433974,24.6197741 C10.4320929,24.8299783 10.4326304,25.0407202 10.4350489,25.2509244 C10.4353177,25.2861377 10.4500977,25.3210821 10.4581595,25.3560265 C10.4624592,25.4165073 10.4667588,25.4772569 10.4707897,25.5374688 C10.4756268,25.5560163 10.4804639,25.5745637 10.485301,25.5931111 C10.4836886,25.5979496 10.4847635,25.6017128 10.4887945,25.6049385 C10.5202356,25.8277765 10.5516767,26.0506145 10.5831179,26.2737213 C10.584999,26.2954944 10.5871488,26.3175362 10.5892986,26.3395781 C10.5949419,26.3621576 10.6008539,26.3847371 10.6064972,26.4070478 C10.6091844,26.4290896 10.6121404,26.4511315 10.6148277,26.4731734 C10.6202023,26.4876888 10.6253081,26.5027418 10.6306826,26.5175259 C10.6820096,26.6884849 10.7336053,26.8597127 10.7849323,27.0309404 C10.7954127,27.0677665 10.8061618,27.1043237 10.8169109,27.1411498 C10.82766,27.1583532 10.8384091,27.1758254 10.8491582,27.1932976 C10.945094,27.4021579 11.0410297,27.6110181 11.1369655,27.8196095 C11.1772746,27.8983689 11.2175838,27.9768595 11.2576242,28.0556189 C11.2710606,28.0784672 11.2842282,28.1010467 11.2973959,28.123895 C11.3460356,28.207224 11.3876884,28.2951227 11.4443899,28.3722693 C11.5924588,28.5741406 11.7469772,28.7714423 11.8988083,28.9708944 L11.8985396,28.9706256 C11.9576597,29.0380953 12.0170485,29.1052961 12.0761686,29.1727658 L12.0756311,29.1719593 Z M20.0047085,28.1480873 C20.0219071,28.1599146 20.0393744,28.1714732 20.0565729,28.1833005 C20.0710842,28.1919022 20.0853268,28.2005039 20.0998381,28.2096432 C20.1199927,28.2187826 20.1401472,28.2281907 20.1603018,28.23733 C20.1648702,28.2432437 20.169976,28.2488885 20.1748131,28.2545334 C20.1949677,28.2671672 20.2148535,28.2800697 20.2350081,28.2929723 C20.241995,28.2951227 20.2489819,28.2972731 20.2559688,28.2994236 L20.6117642,28.5010261 C20.6289628,28.5109718 20.6458926,28.5211864 20.6628225,28.5311321 C20.682977,28.5424218 20.7034003,28.5537116 20.7235549,28.5652701 C20.839914,28.6284389 20.9530483,28.6991342 21.0731696,28.7539701 C21.6280921,29.0061077 22.1789838,29.2679221 22.7416994,29.4998995 C23.5118728,29.8173563 24.3070378,30.0635802 25.1113396,30.2794293 C25.3101981,30.3326523 25.5133562,30.3702848 25.7143644,30.415175 C25.818362,30.4382921 25.9223596,30.4614092 26.0266259,30.4842575 C26.0510802,30.4877519 26.0755344,30.4909775 26.0997199,30.4942032 C26.1284737,30.5036113 26.1572276,30.5130194 26.1862502,30.5224275 C26.2007614,30.5235027 26.2155415,30.5248468 26.2303215,30.5261908 C26.3415747,30.5444694 26.452828,30.562748 26.5638125,30.5810267 C26.7188683,30.6084446 26.8739242,30.6361314 27.0292487,30.6635493 C27.0402666,30.6656997 27.0515531,30.668119 27.0628397,30.6702694 C27.0889063,30.6764519 27.1152416,30.6829031 27.1410394,30.6890856 C27.17893,30.6936553 27.2165519,30.6982249 27.2541738,30.7027946 C27.2821214,30.7111275 27.3095316,30.7248365 27.3380168,30.7267181 C27.55488,30.7409647 27.7720119,30.752792 28.0044613,30.7659634 C27.6011011,30.6388194 27.2130584,30.5175891 26.8260906,30.3936707 C26.3945141,30.2549682 25.9838983,30.0676122 25.5813443,29.8606336 C25.4335441,29.7848311 25.2833253,29.7141358 25.1344502,29.64129 C25.1199389,29.6326883 25.1051589,29.6246242 25.0906476,29.6162913 C24.97187,29.5504345 24.8528237,29.4843089 24.7337773,29.418452 C24.7289402,29.4149576 24.7235657,29.413076 24.7179224,29.4128072 C24.6862125,29.3921093 24.6539652,29.3714115 24.6219866,29.3507136 C24.5937702,29.3345854 24.5652851,29.318726 24.5370687,29.3028666 C24.5206763,29.2910392 24.5042839,29.2794807 24.4878915,29.2676533 C24.443014,29.2429234 24.3981365,29.2184623 24.353259,29.1934636 C24.3314921,29.1800234 24.3097251,29.1663145 24.2879582,29.1528743 L24.053359,29.0096021 C24.0350855,28.9969683 24.0165433,28.9843346 23.9980011,28.9719696 C23.9705909,28.9555726 23.9429119,28.9389068 23.9155017,28.9227786 C23.8985719,28.9090696 23.881642,28.8953607 23.8649809,28.8819205 C23.8386456,28.8649859 23.8123103,28.8485889 23.7857062,28.8316543 C23.7677015,28.8190205 23.749428,28.8063867 23.7311545,28.793753 C23.7024007,28.7778936 23.6741843,28.7617654 23.6456992,28.7456372 C23.6295755,28.7311218 23.6137206,28.7168752 23.5978656,28.7026286 C23.566962,28.6805868 23.5355208,28.6585449 23.5046171,28.636503 C23.4833877,28.622794 23.4624269,28.6085475 23.4414662,28.5945697 C23.251207,28.4496847 23.0604104,28.3053372 22.8706887,28.1599146 C22.7191263,28.0437915 22.5689075,27.9263245 22.4178826,27.809395 L22.4181513,27.8099326 C22.3584938,27.7577848 22.2988363,27.7056369 22.2391787,27.6532202 C22.2319231,27.6462313 22.2243987,27.6392425 22.2168744,27.6322536 C22.1943012,27.6107493 22.1714594,27.589245 22.1486175,27.567472 C22.122551,27.5435485 22.0959469,27.5193562 22.0693429,27.4954327 L22.0174785,27.4497361 C21.980394,27.4139852 21.9433096,27.3782344 21.9059565,27.3422147 C21.890639,27.3271617 21.8755903,27.3121087 21.8602728,27.2970558 C21.8078709,27.2494776 21.7549316,27.2021682 21.7025297,27.1548588 C21.6802253,27.128516 21.6576522,27.1021733 21.6353478,27.0760994 C21.6205677,27.0618528 21.6057877,27.0476062 21.5910077,27.0338972 C21.5735404,27.0156186 21.5558044,26.9978776 21.5383371,26.9798678 C21.5163014,26.9567507 21.493997,26.9336336 21.4719614,26.9107853 C21.4719614,26.9107853 21.4687366,26.9059468 21.4684679,26.9062156 C21.3843562,26.8126721 21.3005131,26.7196661 21.2164014,26.6261225 L21.2169388,26.6271977 C21.188185,26.5938661 21.1596999,26.5605345 21.1306773,26.5272029 C21.0626892,26.4358097 20.9922826,26.3460294 20.9269817,26.2527546 C20.8068605,26.0815269 20.6894265,25.9078799 20.5706489,25.7350393 C20.5327583,25.6764402 20.4943303,25.6175722 20.4559022,25.5589731 C20.3833457,25.4315603 20.3102518,25.3036099 20.2374266,25.1759283 L20.2385016,25.1770035 C20.2309772,25.1552304 20.2234528,25.1334573 20.2161972,25.1119531 C20.1973862,25.0608804 20.178844,25.009539 20.1603018,24.9587351 C20.1498214,24.9383061 20.1393411,24.917877 20.1288607,24.897448 C20.1178428,24.8657292 20.106825,24.8340104 20.0960759,24.8022916 C20.0901639,24.7872386 20.0845206,24.7719168 20.0786086,24.7568638 L20.0692031,24.7135865 C20.0635599,24.6988023 20.0581853,24.6837493 20.052542,24.6692339 C20.0084707,24.5127903 19.9646681,24.3566156 19.9208655,24.2004408 C19.9189844,24.1856566 19.917372,24.1708724 19.9152222,24.1560882 C19.9095789,24.1262511 19.9039357,24.0966827 19.8980236,24.0665767 C19.8958738,24.0370083 19.8939927,24.0077088 19.8915742,23.9778716 C19.8856622,23.9410455 19.8800189,23.9036819 19.8741069,23.866587 L19.8679262,23.7746562 C19.8673887,23.7461631 19.8668512,23.7182075 19.8663138,23.6897144 C19.8679262,23.6214383 19.8698072,23.5531623 19.8714196,23.4848862 C20.1807251,23.2383935 20.4859997,22.9867935 20.800411,22.7467521 C21.1758235,22.4604765 21.560104,22.1857595 21.9387413,21.9035159 C22.2426722,21.676377 22.5412286,21.4425181 22.8462345,21.2164545 C23.4127123,20.7963148 23.9934327,20.3947225 24.5470116,19.9581858 C25.1408997,19.4901991 25.7261885,19.0079659 26.2854107,18.4991211 C26.6946828,18.1268284 27.0657957,17.710452 27.4350274,17.2967635 C27.6604899,17.0443572 27.8612295,16.7677585 28.0517574,16.4873966 C28.2610962,16.1793479 28.4647917,15.8643103 28.6375836,15.5350262 C28.8291864,15.1694536 29.0003659,14.7907096 29.1476286,14.4052456 C29.2575382,14.1168195 29.3155834,13.8085021 29.3967391,13.5090551 C29.4144752,13.4316397 29.4327486,13.3536867 29.4504847,13.2762714 C29.4512908,13.261756 29.4523658,13.2475094 29.4534407,13.2332628 L29.4730578,13.1200966 C29.4754763,13.0913346 29.4778949,13.0623039 29.4800447,13.0332731 C29.4840756,13.0026295 29.4881065,12.9719859 29.4921374,12.9413424 L29.50638,12.7711898 C29.5168604,12.6873232 29.5273408,12.6031877 29.5378211,12.519321 L29.5466892,12.2532057 C29.5520637,12.2163796 29.5579757,12.1798224 29.5633503,12.1429963 C29.5569008,12.0540224 29.5499139,11.9645109 29.5431957,11.8755369 C29.5418521,11.8384421 29.5402397,11.801616 29.538896,11.7645212 C29.5109484,11.6156041 29.4830007,11.466687 29.455053,11.3180387 C29.4531719,11.3035234 29.4515596,11.2887392 29.4496785,11.2742238 C29.4236119,11.1758417 29.3972766,11.0777285 29.3709413,10.9793465 C29.3695976,10.9656375 29.368254,10.9516597 29.3671791,10.9376819 C29.3599234,10.9237042 29.3526678,10.9099952 29.3454122,10.8960174 C29.3448747,10.8879533 29.3437998,10.8798892 29.3429936,10.8718251 L29.2965037,10.6492559 C29.290323,10.6344717 29.2846797,10.6194187 29.2787677,10.604097 C29.2760804,10.5895816 29.2733932,10.5750662 29.2707059,10.560282 L29.0739973,10.0931017 C29.0619045,10.0756295 29.049543,10.0581573 29.0374503,10.0406851 C28.999291,9.97590345 28.9614004,9.91085303 28.9232411,9.84607142 L28.9020116,9.79876202 C28.8813195,9.76731203 28.8608962,9.73586203 28.8402042,9.70441204 L28.8173624,9.66409153 C28.8060758,9.64366247 28.795058,9.62323341 28.7837714,9.60280436 C28.7719474,9.58452573 28.7601234,9.5665159 28.7485681,9.54823727 C28.7491055,9.5425924 28.7469557,9.53802274 28.7423874,9.53425949 C28.7214266,9.5025407 28.7004658,9.4708219 28.6795051,9.4391031 C28.674668,9.43345823 28.6700996,9.42781336 28.6652625,9.42216848 C28.6443018,9.37969755 28.6305967,9.33077533 28.6010366,9.29529329 C28.4223328,9.08293862 28.239598,8.87327198 28.0582068,8.66279893 C28.035365,8.64021945 28.0125231,8.61763996 27.9894125,8.59506048 L27.98995,8.59532928 C27.7150416,8.3103977 27.4030489,8.07385072 27.0574651,7.8813875 C27.0402666,7.86902255 27.0233367,7.85665759 27.0061381,7.84402383 C26.9859836,7.83434691 26.965829,7.82466999 26.9456744,7.81472426 C26.8989158,7.78730632 26.8521572,7.75988837 26.8053986,7.73273923 C26.8002928,7.72951359 26.7941121,7.72736316 26.7879313,7.72628795 C26.7519218,7.70182684 26.7185996,7.67037685 26.6793654,7.65344223 C26.3496366,7.51151405 26.0150707,7.380338 25.689104,7.23034571 C25.3147665,7.05831155 24.9170496,6.96826241 24.5185265,6.89245986 C23.7733448,6.75106928 23.0195638,6.68709408 22.2604082,6.70026544 C22.0647745,6.70349108 21.8675284,6.68171801 21.6729696,6.69488937 C21.3182492,6.71854407 20.9646036,6.75590774 20.6114955,6.79488423 C20.3459926,6.823915 20.080221,6.85402098 19.8179428,6.90213678 C19.3632557,6.98546583 18.9093747,7.07390214 18.4587185,7.17658503 C17.9857578,7.28410639 17.5125285,7.39512218 17.0478984,7.53328712 C16.4765835,7.70290206 15.9098369,7.89025801 15.3490024,8.09186055 C14.8265958,8.28002292 14.3119824,8.49130237 13.7989814,8.70473226 C13.6659612,8.76010576 13.5391218,8.84827326 13.4335118,8.94719291 C13.3072098,9.0657352 13.3029102,9.22863005 13.3864845,9.36356935 C13.4171194,9.39286892 13.4474857,9.42189968 13.4781206,9.45093045 C13.5170861,9.46894027 13.5563203,9.4866813 13.5955546,9.50442232 C13.653331,9.49797104 13.7116449,9.49178856 13.7696901,9.48533728 C13.9970337,9.41087874 14.2222274,9.3280873 14.4527957,9.26357449 C15.007987,9.10793733 15.5645219,8.9544506 16.1240128,8.81467284 C16.2868618,8.77381473 16.4639533,8.76978268 16.6098724,8.89343223 C16.6227713,8.92085018 16.6356702,8.94853693 16.6485692,8.97622367 C16.6552874,9.02837153 16.6620055,9.08051939 16.6687237,9.13293605 C16.659587,9.16196681 16.650719,9.19099758 16.6415822,9.22029714 C16.6351328,9.22755484 16.6286833,9.23481253 16.6222339,9.24207022 C16.488945,9.31088388 16.3588808,9.38776165 16.2212922,9.44662959 C15.9724504,9.55307573 15.7176967,9.64500649 15.4680487,9.749571 C15.0582391,9.92133636 14.6492356,10.095521 14.2421132,10.2742752 C13.8691193,10.4385141 13.4977377,10.606785 13.128506,10.779088 C12.8197379,10.9234354 12.5136571,11.0731589 12.20892,11.2258392 C11.8845658,11.388734 11.5604802,11.5529729 11.2415005,11.7260823 C10.9098907,11.9059117 10.5833866,12.0951493 10.2571512,12.2846557 C10.1072012,12.371748 9.95348902,12.4574963 9.81858775,12.5655552 C9.66971265,12.6849039 9.64176498,12.8913449 9.73044509,13.0214458 C9.74710621,13.0496701 9.76376732,13.0776257 9.78042843,13.1055812 C9.794671,13.1136453 9.80891356,13.1219782 9.82342485,13.1300423 C9.83954851,13.1413321 9.8559409,13.1528906 9.87233328,13.1641804 C9.89436895,13.1717069 9.91667334,13.1792333 9.93897773,13.1867598 C9.95993849,13.1910607 9.98063051,13.1953616 10.00186,13.1996624 C10.025508,13.2007376 10.0491561,13.2018128 10.0730728,13.2026192 C10.1158005,13.1953616 10.1628278,13.1967056 10.2009872,13.1795022 C10.4484853,13.0671423 10.6938336,12.9499441 10.9407943,12.8357026 C11.2621926,12.6870544 11.5841283,12.5394813 11.9063327,12.3919082 C12.2908819,12.2161108 12.6754312,12.0400446 13.0605179,11.8653224 C13.2287414,11.7889823 13.3975023,11.7134485 13.5676069,11.6411404 C13.9889718,11.4621173 14.4106055,11.2830943 14.8335828,11.1075657 C15.0998918,10.9970875 15.3667384,10.8874157 15.6370784,10.7868833 C15.9724504,10.6624273 16.3102411,10.5433474 16.6501815,10.4309876 C16.7797082,10.3882478 16.9146095,10.3901295 17.0269377,10.4920059 C17.0487046,10.5366273 17.0702028,10.5812487 17.0919697,10.6261388 C17.0930447,10.6554384 17.0938508,10.6850068 17.094657,10.7145751 C17.088745,10.7511324 17.0825643,10.7876897 17.0763835,10.8242469 C17.0712777,10.8290854 17.0664406,10.833655 17.0613348,10.8384935 C16.9664739,10.9110704 16.8794062,10.9987003 16.7751399,11.0535362 C16.530329,11.182293 16.2785312,11.2976097 16.0272709,11.4137327 C15.8418488,11.499481 15.683837,11.6126472 15.5814517,11.7951647 C15.5215255,11.9018797 15.5226004,12.0075194 15.5948881,12.1018694 L15.6830308,12.2381527 C15.7072163,12.2564313 15.731133,12.27471 15.7553185,12.2932574 L15.8448048,12.3343843 C15.8593161,12.3362659 15.8740961,12.3381476 15.8886074,12.3400292 C15.9254231,12.3405668 15.9622388,12.3411044 15.9993232,12.3419108 C16.0210901,12.3397604 16.0425884,12.3378788 16.0643553,12.3357283 C16.0901532,12.3249762 16.115951,12.3144929 16.1417489,12.3037407 C16.2113493,12.2792796 16.2830996,12.2593882 16.3500128,12.229551 C16.6147095,12.1112775 16.8729567,11.9774134 17.1424905,11.8720425 C17.9516294,11.5559297 18.7731298,11.273955 19.6142473,11.056493 C20.4217738,10.8479016 21.2392432,10.6844692 22.0757923,10.6387726 C22.8008195,10.5992585 23.5124103,10.6508687 24.1820795,10.9688631 C24.2030403,10.9798841 24.224001,10.9906362 24.2452305,11.0013884 C24.2597418,11.0099901 24.2739844,11.0185918 24.2884956,11.0269247 C24.3035444,11.0341824 24.3183244,11.0411713 24.3331044,11.0484289 L24.3374041,11.0540738 L24.3441223,11.0540738 C24.3586336,11.0696644 24.370995,11.0876742 24.3873874,11.1005768 C24.5478178,11.2250328 24.7087857,11.3484135 24.8694848,11.4723319 L25.1293444,11.8099489 L25.2048569,11.9852087 L25.2978366,12.2521305 C25.3037486,12.2669147 25.3101981,12.2819677 25.3163788,12.2967518 C25.3185286,12.311536 25.3204097,12.3263202 25.3225596,12.3408356 C25.3325025,12.3601894 25.3421767,12.3792745 25.3521196,12.3986283 C25.3553443,12.4241647 25.3585691,12.4499698 25.3617938,12.4755061 C25.368512,12.5053433 25.3752302,12.5349116 25.3819484,12.5647488 C25.3830233,12.579533 25.3840982,12.5943172 25.3851731,12.6091014 C25.3929662,12.7206548 25.4007593,12.832477 25.4085524,12.9440304 L25.4031778,13.2340692 C25.3991469,13.2717017 25.395116,13.3090654 25.3910851,13.3466979 C25.3878604,13.3910504 25.3843669,13.435403 25.3814109,13.4794867 C25.3593752,13.5614718 25.3351898,13.6426504 25.3163788,13.7254418 C25.239254,14.0703166 25.1298818,14.4057832 24.95709,14.7141007 C24.7727428,15.0428472 24.5846335,15.3721313 24.3669641,15.6791048 C24.0786194,16.0860731 23.7822128,16.4914286 23.4487218,16.8607645 C22.9797921,17.3800926 22.4845271,17.87711 21.9801253,18.3623002 C21.4386391,18.8835099 20.8761922,19.3834842 20.31697,19.8861465 C19.654019,20.4826212 18.9650013,21.0500652 18.3396721,21.688742 C17.8151158,22.2244671 17.3174322,22.7744389 17.0613348,23.4964447 C16.9756107,23.7378302 16.906279,23.9845917 16.9197153,24.2455998 L16.9221339,24.4442455 C16.9264335,24.4816091 16.9310019,24.5192416 16.9353015,24.5568741 L16.9412135,24.6450416 C16.9516939,24.6789108 16.9619056,24.71278 16.972386,24.7466493 C16.975342,24.7651967 16.978298,24.7834753 16.9815227,24.8022916 C16.9890471,24.8315911 16.9965714,24.8614283 17.0043645,24.8907279 C17.0105453,24.9133074 17.0169947,24.9358869 17.0231755,24.9584663 C17.0258628,24.9727129 17.0288188,24.9869595 17.031506,25.0012061 C17.041449,25.0208287 17.0516606,25.0404514 17.0618723,25.060074 C17.1376534,25.2280761 17.2134346,25.3958094 17.2894846,25.5638115 C17.2897533,25.5702628 17.2921718,25.5761765 17.2967402,25.5807462 C17.3163573,25.612465 17.3362432,25.6444526 17.3558603,25.6759026 L17.5834726,26.0269598 C17.605777,26.0570658 17.6280814,26.0869029 17.6503858,26.1167401 C17.6783334,26.1575982 17.7060124,26.1981875 17.7336913,26.2390456 C17.8624119,26.3860811 17.9833393,26.5409118 18.1211966,26.6782704 C18.2980193,26.855143 18.4885472,27.0183066 18.6731631,27.1871152 L18.6731631,27.1871152 C18.7328206,27.2384566 18.7922095,27.2903357 18.8521357,27.3419459 C18.872559,27.3578053 18.8929823,27.3736647 18.9136743,27.3897929 C18.9300667,27.4040395 18.9461904,27.4188237 18.962314,27.4333391 C19.2127682,27.6123621 19.4632223,27.7913852 19.7136765,27.9704082 C19.7311438,27.981698 19.7488798,27.9929877 19.7660784,28.0042775 C19.7854268,28.0155672 19.8047752,28.0265881 19.8238548,28.0378779 C19.8418596,28.0497052 19.8604018,28.0615326 19.8784065,28.0733599 C19.9205968,28.0983586 19.9625183,28.1230885 20.0047085,28.1480873 L20.0047085,28.1480873 Z M0.022659511,19.8538901 L0.022659511,18.2265544 C0.029915157,18.1873092 0.0417391727,18.1480639 0.0430828108,18.1085498 C0.0726428499,17.3185366 0.16212915,16.534706 0.294880599,15.7562514 C0.526255087,14.3998695 0.915910148,13.0873026 1.42971737,11.812637 C2.12303466,10.0922953 3.08024247,8.52382758 4.23415891,7.07793419 C5.79761625,5.11889515 7.71122569,3.56601801 9.89087549,2.34672587 C11.7190295,1.32392901 13.6796663,0.657834227 15.7456443,0.30274496 C16.5281792,0.168074466 17.3152824,0.0761437094 18.1077602,0.0436185002 C19.2587206,-0.00315328816 20.4091436,0.020232606 21.5493549,0.197374035 C22.2133809,0.30032573 22.8790192,0.410266313 23.5317586,0.567785094 C25.2346856,0.978785465 26.8510823,1.6099358 28.3712745,2.49349252 C30.4987911,3.72998808 32.3575801,5.27076906 33.8807283,7.21233588 C35.0362571,8.68484081 35.9797599,10.2753504 36.6677026,12.0196156 C37.4612553,14.0316089 37.9046559,16.1159103 37.9863491,18.2752079 C38.0309578,19.4568675 37.9659258,20.6350327 37.7958212,21.8070155 C37.5738521,23.3378507 37.1562494,24.8143877 36.578485,26.2457657 C35.8873175,27.9572369 34.9333345,29.5173717 33.7850613,30.956545 C32.2189167,32.9201537 30.3058447,34.4827078 28.1157145,35.6947422 C25.4880958,37.1492373 22.6578564,37.9010804 19.6553626,38 L18.3598267,38 C17.370909,37.9755389 16.3905906,37.8666735 15.4207526,37.6766295 C13.4004583,37.2804133 11.4846991,36.6032976 9.69497305,35.5697486 C7.5430022,34.3270706 5.66540226,32.7739247 4.12881768,30.8127352 C2.93808555,29.2931897 1.97308464,27.6483818 1.28433573,25.8409478 C0.601767551,24.0501797 0.186583364,22.2035005 0.0645810211,20.2906956 C0.0551755541,20.1447354 0.0369020753,19.9995816 0.022659511,19.8538901 L0.022659511,19.8538901 Z" id="Fill-1" fill="#0384FE"></path>
                </g>
                <g id="cns_logo" transform="translate(3.000000, 39.000000)">
                    <circle id="bg" fill="#26BC34" cx="19" cy="19" r="19"></circle>
                    <g id="cnsLogo" transform="translate(4.629014, 4.692137)" fill="#FFFFFF">
                        <path d="M15.2051164,4.1974822 C15.1762314,3.68959298 15.1484433,3.1981937 15.1195583,2.68737299 C16.3829022,2.77031574 17.6240626,3.06074257 18.793438,3.5470469 C20.490706,4.25134921 21.9422688,5.30010743 23.1609233,6.68599265 L22.1349573,7.79338165 C21.2450067,6.75451738 20.2139219,5.9245253 19.0168397,5.30523762 C17.8306527,4.69002007 16.5356875,4.31367989 15.2051164,4.1974822 L15.2051164,4.1974822 Z" id="Path"></path>
                        <path d="M14.7793754,24.5387002 C14.8193032,24.5181654 14.8584984,24.4811296 14.8995251,24.4789294 C15.9653033,24.4206977 17.0151748,24.1940941 18.0102306,23.8075168 C19.4216595,23.2640982 20.6952159,22.4142594 21.7392675,21.3191464 C21.9367086,21.113799 21.9414707,21.109032 22.1326845,21.3169463 C22.3843396,21.590865 22.6268369,21.8732177 22.8748288,22.15007 C22.9275775,22.2087407 22.9290427,22.252377 22.871532,22.3125144 C21.8669446,23.372226 20.6756686,24.2373075 19.3575191,24.8643225 C18.3297466,25.3552361 17.2348858,25.6907468 16.1087148,25.8598906 C15.7555918,25.9126943 15.3988058,25.9387294 15.043485,25.9779654 C15.0068539,25.981999 14.9683914,25.992633 14.9310278,26.0003336 L14.71637,26.0003336 C14.7368834,25.512878 14.7578852,25.0256669 14.7793754,24.5387002 Z" id="Path"></path>
                        <path d="M2.53112605,13.7052918 C2.55164995,13.5248503 2.57437285,13.3451424 2.59196477,13.164701 C2.6959674,12.0981656 2.95065613,11.0517899 3.3484173,10.0568541 C3.96390368,8.4947691 4.91404788,7.0866603 6.1319721,5.93164036 C7.87699277,4.27319294 9.93707986,3.23809973 12.3122333,2.82636076 C12.4060569,2.81022373 12.4302458,2.83479603 12.4339108,2.92501675 C12.4511362,3.35411525 12.4705606,3.78358054 12.498048,4.21194553 C12.5046449,4.30730077 12.4698276,4.32600505 12.3910305,4.34030834 C11.5947336,4.48438323 10.8192334,4.72618577 10.082091,5.06024028 C7.95444608,6.02870709 6.33293532,7.54118769 5.21755877,9.59768204 C4.62325712,10.7010152 4.24532662,11.9079148 4.10413686,13.1533317 C3.94539873,14.4907046 4.05593381,15.8463471 4.42922088,17.1402804 C4.45598976,17.2066431 4.43653961,17.2827144 4.3812096,17.3280569 C4.03853366,17.6640007 3.70062222,18.0039787 3.36014525,18.342123 C3.33267345,18.3658129 3.30392104,18.3879736 3.27401815,18.4085049 C3.25386074,18.3622943 3.23736832,18.32892 3.22344137,18.2937119 C2.89846129,17.3975874 2.68681362,16.4642913 2.59343077,15.5155741 C2.57620534,15.3347659 2.55311595,15.1550579 2.53259204,14.9746165 L2.53112605,13.7052918 Z" id="Path"></path>
                        <path d="M4.93592096,18.5652683 C6.47443568,21.6549084 8.92820893,23.5728014 12.2972407,24.3189473 C12.2293759,24.7759433 12.1604105,25.2314735 12.0943798,25.6877365 C12.0819073,25.7749579 12.0411884,25.7863187 11.961218,25.7701937 C8.51733766,25.082951 5.55967201,22.8971481 3.89410364,19.8083562 C3.78001731,19.5972658 3.76167547,19.6500384 3.94692819,19.4733968 C4.25800603,19.1772839 4.57568694,18.8870346 4.89116683,18.5967853 C4.90530768,18.5852193 4.92026448,18.5746864 4.93592096,18.5652683 Z" id="Path"></path>
                        <path d="M13.0264743,0.00838875094 C13.9048711,0.0210326654 14.783268,0.0339197321 15.6616648,0.047049951 C15.8615,0.0503325056 16.0613353,0.0612743547 16.2611706,0.061639083 C16.3530363,0.061639083 16.3852442,0.0981119132 16.3900022,0.187835076 C16.4134261,0.606907896 16.4427059,1.02671017 16.4686919,1.4446888 C16.4968738,1.89585771 16.5224937,2.34666189 16.5510416,2.79783081 C16.5594596,2.93350974 16.5477476,2.9473694 16.4108641,2.92512099 C16.0196115,2.86202298 15.6287249,2.79564245 15.2371063,2.73509753 C15.1489006,2.72123787 15.1181568,2.68184719 15.1174247,2.59394768 C15.1144968,2.23833759 15.1053468,1.88236277 15.0994908,1.52638794 C15.0965628,1.34657689 15.0976608,1.34402379 14.9113675,1.3480358 C14.2401259,1.36043657 13.5685183,1.3750257 12.8983747,1.38742646 C12.7194014,1.39070902 12.7215974,1.38742646 12.7153754,1.2127216 C12.7040295,0.856746781 12.6890235,0.501501416 12.6787755,0.145891321 C12.6743836,0.00911820756 12.6853635,0 12.823345,0 L13.0272063,0 L13.0264743,0.00838875094 Z" id="Path"></path>
                        <path d="M14.6931769,26.3663921 C14.7005002,26.2674851 14.7125835,26.1689444 14.7140481,26.0700374 C14.7140481,25.9905454 14.7506642,25.9539132 14.8260932,25.9443888 C14.9242243,25.9323001 15.0223553,25.9172809 15.1190217,25.903727 C15.3705741,25.8758865 15.6224926,25.8469471 15.8744111,25.8202055 C16.1263296,25.793464 16.1493977,25.738882 16.1149786,26.0509886 C16.1149786,26.0616119 16.1149786,26.0726016 16.1131478,26.083225 C16.07702,26.872039 16.0410142,27.6607311 16.0051304,28.449301 C15.9985395,28.5936321 15.9948779,28.5991269 15.849146,28.598028 C15.1739458,28.5928994 14.4987456,28.5855729 13.8235455,28.581177 C13.3372842,28.5782464 12.8513891,28.5789792 12.3654939,28.5771475 C12.2388024,28.5771475 12.2245221,28.5580987 12.2314791,28.4306186 C12.2512518,28.081147 12.2701701,27.7316756 12.288234,27.3822041 C12.2962896,27.2279822 12.2977542,27.225418 12.4467816,27.2239527 L14.5262077,27.2034386 C14.5437834,27.2034386 14.5628238,27.2034386 14.5796671,27.2034386 C14.6404498,27.2034386 14.672672,27.1788951 14.6741366,27.115155 C14.6807275,26.8660558 14.6873184,26.617323 14.6931769,26.3663921 Z" id="Path"></path>
                        <path d="M22.1977518,7.72227285 C22.1761089,7.75010726 22.1530791,7.77683323 22.12875,7.80234925 C21.9000894,8.0190696 21.6699606,8.23395333 21.4424012,8.45177566 C21.3877135,8.5043028 21.3469728,8.49622152 21.2955881,8.44626527 C20.9990246,8.14652782 20.700993,7.84764746 20.4014933,7.54962416 C20.3501085,7.49856596 20.3449699,7.45669101 20.4014927,7.40600049 C20.6477709,7.18193372 20.8907457,6.95456101 21.1395931,6.73343284 C21.1758015,6.71343171 21.2197339,6.71343186 21.2559424,6.73343325 C21.5620488,7.03941524 21.8633837,7.35017243 22.1650857,7.66092962 C22.1784186,7.6799767 22.1893878,7.70057563 22.1977518,7.72227285 L22.1977518,7.72227285 Z" id="Path" transform="translate(21.279378, 7.603026) rotate(-1.000000) translate(-21.279378, -7.603026) "></path>
                        <path d="M19.9130182,21.4529872 C19.9398163,21.4110597 19.970095,21.3712731 20.0035603,21.3340142 C20.2516207,21.100827 20.4996811,20.8700194 20.7502221,20.6388151 C20.8329089,20.5670347 20.9193166,20.4972372 21.0003497,20.4230773 C21.0516155,20.3758847 21.0962664,20.3588319 21.1553874,20.4123698 C21.4191583,20.6503158 21.6841696,20.8882619 21.9504211,21.1262079 C22.0116093,21.1809355 22.0111959,21.2229727 21.9504211,21.2796832 C21.6006559,21.6106926 21.2526823,21.9436849 20.9065002,22.27866 C20.8403507,22.3429055 20.7890849,22.3448884 20.7262429,22.27866 C20.5782336,22.1200293 20.4285704,21.9633815 20.2764267,21.8091131 C20.158598,21.6861744 20.0345678,21.5707705 19.9130182,21.4529872 Z" id="Path"></path>
                        <path d="M27.8647859,6.27925821 C27.7306143,6.41819537 27.6169713,6.54466855 27.4941639,6.66197698 C27.1580013,6.98347542 26.8174399,7.3002082 26.4805441,7.62097344 C25.7913559,8.27765629 25.1029009,8.93495013 24.415179,9.59285495 C23.8286359,10.151292 23.2428259,10.7087514 22.6577492,11.2652333 L20.4182541,13.398414 L18.6674229,15.063094 C18.2243384,15.4849156 17.7813761,15.9069816 17.3385361,16.3292919 C17.2795152,16.3857466 17.2366242,16.3908789 17.1776033,16.3292919 C16.4857268,15.6144437 15.7928727,14.9004507 15.099041,14.1873132 C14.8497602,13.930701 14.6015791,13.6740888 14.3515651,13.4174766 C13.6917041,12.7407535 13.0318431,12.0641527 12.371982,11.387674 C12.1373648,11.1468251 11.9016477,10.9067094 11.6703298,10.6625613 C11.6021442,10.5892435 11.5548541,10.5822783 11.4782369,10.6563293 C10.8313287,11.2846626 10.1823432,11.9107963 9.53128028,12.5347306 C8.81643084,13.2217181 8.10121481,13.9080947 7.38563217,14.5938602 L5.81479632,16.1038398 L3.69224334,18.1406075 C3.16288816,18.6484553 2.63353297,19.1563031 2.10417779,19.6641508 C1.75848392,19.9962803 1.41059052,20.3265769 1.06746279,20.6612725 C0.994144895,20.7345903 0.94355555,20.7316576 0.872070606,20.6612725 C0.600061224,20.3846202 0.325363521,20.111878 0.0479774943,19.8430462 C-0.0161756615,19.7807261 -0.0158090721,19.7393015 0.0479774943,19.677348 C0.885756613,18.8708525 1.72243596,18.0628907 2.55801554,17.2534625 C2.78432343,17.0335091 3.01063133,16.8146556 3.23693922,16.5969018 C3.82348237,16.0286891 4.40892575,15.4602319 4.99326933,14.8915304 C5.64091073,14.2644191 6.28928529,13.6376743 6.93839303,13.0112961 L8.83769303,11.1761523 L10.7831833,9.29555138 C10.98884,9.09649364 11.1970628,8.90000201 11.3994202,8.69764496 C11.4650397,8.63202555 11.517462,8.62835964 11.5794156,8.69397905 C11.6091094,8.72513912 11.6413692,8.75336646 11.6717962,8.78379331 L17.0753248,14.1777819 C17.2505546,14.3530114 17.2494548,14.351545 17.4232182,14.1840139 C18.1050746,13.5241539 18.7872976,12.8653938 19.4698872,12.2077333 C20.031991,11.6664038 20.5940949,11.1254408 21.1561987,10.5848444 L23.4840418,8.34352011 C23.6724688,8.16242521 23.8634619,7.98389644 24.0467566,7.79803588 C24.0899416,7.75258483 24.1171018,7.69427406 24.124107,7.63197111 C24.1629655,7.11104834 24.1974249,6.59012556 24.2263855,6.06883619 C24.2322509,5.97278992 24.2689099,5.94969482 24.361657,5.95885952 C25.058177,6.0230126 25.7583628,6.08276658 26.4567158,6.14215396 C26.884159,6.17954603 27.3118467,6.2169381 27.7397788,6.25433017 C27.7742383,6.25762945 27.808331,6.26862712 27.8647859,6.27925821 Z" id="Path"></path>
                        <path d="M28.7031147,6.96477497 C28.7093475,7.02825634 28.7163138,7.06531772 28.7159739,7.10274603 C28.7097143,8.20614764 28.7016483,9.30954922 28.697615,10.4133178 C28.697615,10.5197316 28.6543516,10.5483533 28.5560919,10.5450508 C28.083859,10.5289052 27.6116262,10.5189977 27.1393933,10.5024852 C27.0463045,10.496468 26.9554001,10.5324023 26.8915445,10.6004594 C26.2017716,11.2778386 25.5102877,11.9536278 24.8170929,12.6278268 C24.06548,13.360003 23.3132561,14.0914454 22.5604211,14.8221539 L20.3033827,17.016481 L18.0302121,19.2258528 C17.7863962,19.4628988 17.5400139,19.6981101 17.2994977,19.9384587 C17.2294694,20.008912 17.1836394,20.0056095 17.1161775,19.936257 C16.1961545,19.0020167 15.275276,18.0689996 14.353542,17.1372057 C14.1621556,16.943826 13.9748024,16.74641 13.7834161,16.5526633 C13.0188486,15.7774323 12.2539145,15.0026905 11.4886137,14.228438 C11.3764217,14.1143183 11.3760551,14.1154191 11.26093,14.228438 C10.4924517,14.9740688 9.72372894,15.7194551 8.95476175,16.4645967 C8.33465059,17.0649176 7.71405057,17.66426 7.09296171,18.2626239 L5.21576275,20.0767967 L3.33856379,21.8909694 C3.13507836,22.0876516 2.93012637,22.2821321 2.72920742,22.4813829 C2.66724519,22.5430295 2.62288169,22.5470659 2.56091946,22.4813829 C2.30427117,22.2109449 2.04762287,21.9434425 1.78620825,21.676307 C1.73597852,21.6245679 1.73231211,21.5834701 1.78620825,21.5295293 C2.1240063,21.1990347 2.46107106,20.8675617 2.79740253,20.5351101 C2.82013424,20.5123596 2.84506579,20.4914438 2.8677975,20.4690602 C3.5228617,19.8242167 4.178537,19.1788839 4.83482336,18.5330619 C5.56272681,17.8175204 6.29124132,17.1027129 7.0203669,16.3886392 C7.67005373,15.7526024 8.31974056,15.1165656 8.96942739,14.4805287 C9.74670505,13.718263 10.5237383,12.9556304 11.3005272,12.1926308 C11.3947538,12.1001609 11.4017199,12.0997939 11.4970464,12.1970342 C12.4072924,13.1239355 13.3170495,14.0515708 14.2263177,14.9799399 C14.8254082,15.5915138 15.4235209,16.2038216 16.020656,16.8168633 C16.3685977,17.1731662 16.7172727,17.5269005 17.0637479,17.8857721 C17.137076,17.9617296 17.1843726,17.9687015 17.2639336,17.8912762 C17.8505583,17.3227572 18.4390161,16.7568067 19.0293072,16.1934248 C19.6648173,15.5842972 20.3014273,14.9756589 20.9391372,14.3675099 L22.8724321,12.5188443 L24.8130599,10.662473 L26.715557,8.84426383 C27.3422678,8.24541068 27.9688563,7.64680217 28.5953224,7.04843827 C28.6231871,7.02311912 28.6543516,7.00257023 28.7031147,6.96477497 Z" id="Path"></path>
                        <path d="M8.19759176,18.9907691 C8.94278307,19.9251796 9.84566742,20.66422 10.9256814,21.1837435 C11.8276402,21.6189217 12.8067957,21.8723014 13.8070634,21.9293695 C15.4392475,22.025713 16.9540787,21.6510707 18.3515568,20.8054426 C18.9683101,20.4261358 19.528637,19.962332 20.0161353,19.4276078 C20.0425397,19.3987048 20.0693108,19.3708993 20.0957152,19.3430938 C20.1114845,19.34785 20.12432,19.34785 20.1323881,19.3540696 C20.4474074,19.6760278 20.7609598,19.9990836 21.0767127,20.3199443 C21.1456575,20.3898238 21.1320886,20.4384834 21.0679112,20.505802 C19.6523411,22.00181 17.9338536,22.9424402 15.9029139,23.3046432 C15.5691914,23.3642787 15.2285011,23.3865962 14.8914781,23.4272069 C14.8602136,23.4322612 14.8292421,23.4389783 14.7986959,23.4473292 L13.7443529,23.4473292 C13.5785918,23.4272069 13.4142977,23.4059869 13.246703,23.3869621 C11.5853784,23.2057445 10.0058081,22.5729792 8.68020581,21.5576541 C8.12853413,21.141188 7.6283632,20.6608663 7.19018993,20.1267693 C7.40509255,19.8828616 7.6201174,19.6399295 7.8352645,19.397973 C7.95518455,19.2607749 8.07693824,19.1276013 8.19759176,18.9907691 Z" id="Path"></path>
                        <path d="M21.4137744,8.51183246 L20.3129312,9.55670802 C20.2966973,9.52246636 20.2774158,9.48975839 20.2553204,9.45898055 C19.0385218,8.02246034 17.5101846,7.10764313 15.6537961,6.80086706 C13.2381793,6.40297669 11.078692,6.99962857 9.21276288,8.6011098 C8.54516687,9.17553595 7.9866427,9.865926 7.56406678,10.639058 C7.51306106,10.7320093 7.46792649,10.7441334 7.3717862,10.7088634 C6.98172077,10.5659461 6.58798586,10.4325812 6.19571877,10.2951749 C6.159024,10.2826835 6.12232923,10.266518 6.07022264,10.2448416 C6.49885,9.3888629 7.06055037,8.60648112 7.73433053,7.92693727 C9.06121346,6.58777711 10.6482623,5.72255843 12.4947432,5.35516194 C16.0845927,4.63800401 19.4733548,6.11273349 21.4137744,8.51183246 Z" id="Path"></path>
                    </g>
                </g>
                <g id="arrow_1" transform="translate(53.500000, 49.480000) rotate(6.000000) translate(-53.500000, -49.480000) translate(42.000000, 32.000000)" fill="#FFFFFF">
                    <path d="M22.7882685,20.0648549 L22.7882685,20.159312 C22.7795698,20.1707212 22.7727071,20.1834757 22.7679391,20.1970948 C22.7005794,20.5061958 22.4801953,20.756899 22.1867026,20.8582942 C22.0587667,20.9031722 21.9234217,20.9217899 21.7884309,20.9130793 C21.6560789,20.9011864 21.5247957,20.8790834 21.3957035,20.8469593 C21.3384115,20.8356245 21.2792714,20.8261788 21.2229035,20.8110657 C21.0667366,20.7695046 20.9114938,20.7251097 20.756251,20.6816595 C20.7026552,20.6665464 20.6490595,20.6542669 20.5963878,20.6391538 C20.4439172,20.5957036 20.2923707,20.5503642 20.1399,20.5078585 C20.0585824,20.4851888 19.9754166,20.4662974 19.8940989,20.4436277 L19.4810421,20.326501 C19.4320667,20.3123324 19.3812432,20.3019421 19.3313437,20.2877736 C19.0744538,20.2103188 18.818488,20.1309749 18.5615981,20.0563538 C18.3841777,20.005347 18.2039852,19.9618967 18.0265648,19.9146682 C17.9428574,19.8759904 17.8546688,19.8483754 17.7641305,19.8324906 C17.5636086,19.8324906 17.3945048,19.7380335 17.2096919,19.684193 C17.0091699,19.6227959 16.8049517,19.5727337 16.6007335,19.5264497 C16.4971672,19.4890782 16.3834613,19.5438239 16.3456917,19.6492439 C16.3244382,19.7011953 16.2856275,19.743701 16.26345,19.7965969 C16.2089302,19.9222248 16.1581067,20.0497418 16.1072831,20.1744251 C16.0786371,20.247157 16.0509152,20.3208335 16.0222692,20.3935655 C15.9936232,20.4662974 15.9723697,20.5343065 15.9409515,20.601371 C15.8140467,20.8721479 15.6862178,21.1422951 15.5574648,21.4118125 C15.4650584,21.6007266 15.3781963,21.7830287 15.2802455,21.9662754 C15.2044722,22.1126838 15.1203824,22.255314 15.0409128,22.3998333 C15.0409128,22.4055007 15.0409128,22.415891 15.0409128,22.4215584 C15.0113428,22.4801218 14.9817727,22.5386851 14.9485064,22.5953594 C14.9152401,22.6520336 14.8838219,22.6898164 14.8561,22.7464907 C14.7775545,22.8947882 14.7091737,23.0487532 14.6232357,23.1932725 C14.5151202,23.3755746 14.3912956,23.5474865 14.2794838,23.7278994 C14.2425212,23.7864628 14.2305084,23.8620285 14.1926217,23.9168136 C13.9754666,24.2389121 13.7536912,24.5572324 13.535612,24.8783863 C13.4016226,25.0729679 13.2731777,25.2713277 13.1373402,25.4649646 C13.0283006,25.6198742 12.9164888,25.7728946 12.8000567,25.9211922 C12.6540546,26.1101063 12.502508,26.286741 12.3528096,26.467154 C12.0931475,26.7807514 11.8362576,27.0952934 11.5719752,27.4032234 C11.4315174,27.5666341 11.2762746,27.7177654 11.1284243,27.8755086 C10.9315986,28.0842587 10.7421654,28.2986762 10.5379471,28.4998698 C10.2653482,28.7690724 9.98350852,29.0278847 9.70628921,29.2885861 C9.5353373,29.4482186 9.36530946,29.6106847 9.18511691,29.7608714 C8.8376687,30.0442426 8.48375205,30.3276137 8.13168352,30.6024837 C7.95241503,30.7441693 7.77222248,30.8858549 7.58740961,31.0180948 C7.41922989,31.1399444 7.24458172,31.2514037 7.07085762,31.3656967 C7.01541376,31.4015904 6.95534958,31.4308721 6.89990571,31.4686549 C6.61436982,31.657569 6.33437832,31.8615963 6.04329804,32.0429538 C5.79195253,32.1988079 5.51935354,32.3187684 5.27262835,32.48029 C5.06748606,32.6134744 4.87435661,32.7636611 4.63225174,32.8203353 C4.61874912,32.8262507 4.60602181,32.8338662 4.5943651,32.843005 C4.33193082,32.9875243 4.07504093,33.1405448 3.80706226,33.2727846 C3.50581727,33.4210822 3.19625571,33.5504884 2.8903904,33.6865065 C2.76656577,33.7422362 2.64089302,33.7951321 2.51522027,33.8461389 C2.28600138,33.9572874 2.04948411,34.0519738 1.80738696,34.1295101 C1.57175054,34.1899626 1.37030451,34.3571516 1.11526274,34.3458168 C1.09862958,34.3458168 1.08107236,34.3590407 1.0644392,34.3675419 L0.787219889,34.5139503 L0.742864799,34.5139503 C0.650458362,34.4194933 0.620888302,34.3458168 0.695737516,34.2305791 C0.839891558,34.0171062 0.823258399,33.7582939 0.938766446,33.524985 C1.05427449,33.291676 1.08569268,33.0158614 1.14760499,32.7570491 C1.1993526,32.541687 1.2452478,32.3247507 1.28529059,32.10624 C1.32502535,31.8918225 1.33611413,31.6698484 1.39063392,31.4601538 C1.45536214,31.1967436 1.49497389,30.9275431 1.50891416,30.6563243 C1.54125642,30.1490899 1.59577621,29.6428001 1.6013206,29.1346211 C1.60871312,28.6868947 1.57175054,28.2382237 1.54495267,27.7904973 C1.52185107,27.4221148 1.4950532,27.0518431 1.45254624,26.6853498 C1.42183247,26.454073 1.37677052,26.2250253 1.31763284,25.9995916 C1.26477625,25.8532805 1.32912999,25.6898473 1.4664072,25.6217634 C1.58468744,25.5490314 1.70389175,25.4781886 1.82124792,25.4035676 L2.78781926,24.7924304 C2.86636473,24.7433128 2.95045458,24.7045854 3.02253161,24.6488557 C3.15097655,24.5487312 3.27110492,24.4391611 3.39677768,24.3352583 C3.73868149,24.0518871 4.08243344,23.7770171 4.42156507,23.4917568 C4.56017472,23.3746301 4.68769561,23.2433348 4.81798868,23.1139286 C4.94828176,22.9845224 5.06841013,22.871174 5.18761443,22.7474352 C5.30681873,22.6236965 5.39922517,22.523572 5.50456851,22.4111681 C5.68938139,22.215642 5.87419426,22.0220051 6.05069055,21.8217561 C6.15233764,21.7084077 6.23550343,21.5799461 6.33345425,21.4618747 C6.41754411,21.3589166 6.51826713,21.2663486 6.59496447,21.1605567 C6.74651103,20.9612524 6.88881694,20.755336 7.03666724,20.5531979 C7.105048,20.4587408 7.18359348,20.3737295 7.24642985,20.2764387 C7.33883629,20.1300303 7.43124273,19.9751207 7.52364916,19.8258786 C7.65024598,19.6237405 7.78238719,19.4253807 7.90621181,19.222298 C8.01340328,19.0475525 8.11227817,18.8680841 8.21392525,18.6895602 C8.27676163,18.5799901 8.34514239,18.4732536 8.39873813,18.358016 C8.48467611,18.1691019 8.55952533,17.9716866 8.64084299,17.7780497 C8.65149938,17.7540682 8.66550653,17.7317957 8.68242589,17.7119298 C8.85522593,17.5154591 8.71014782,17.3274895 8.50223333,17.2887622 C8.33590175,17.2575913 8.1686461,17.2273651 8.0050867,17.1820257 C7.71493049,17.1007926 7.42847053,17.0025573 7.13739026,16.9203796 C6.73634632,16.8070312 6.33345425,16.7012393 5.93056219,16.5935582 C5.60159527,16.5057132 5.27170429,16.4216464 4.94181331,16.3338013 C4.91409138,16.3271894 4.88914164,16.3073534 4.86049564,16.2988522 C4.76808921,16.2676814 4.66644212,16.2346214 4.56756724,16.2043952 C4.46869235,16.1741689 4.34579179,16.1552775 4.23582813,16.1259958 C4.14808412,16.0913142 4.0574697,16.0647595 3.96507727,16.0466519 C3.70593093,16.0289786 3.45842616,15.9300227 3.25631989,15.7632808 C2.9319733,15.5016347 2.92088453,14.929225 3.05302573,14.6222396 C3.12442075,14.4734492 3.22732472,14.3427714 3.35427072,14.2396885 C3.49103224,14.1168943 3.60746435,13.9695413 3.73683337,13.8363569 C7.53473794,9.93150231 11.2411601,5.93407983 15.0399888,2.02922527 C15.1564209,1.90926481 15.2765492,1.79308264 15.3920573,1.67217761 C15.5473001,1.50971148 15.6988467,1.3425225 15.8540895,1.1791118 C15.9899269,1.03742622 16.1377772,0.906130913 16.2652981,0.755944199 C16.4150292,0.558322137 16.6081173,0.399453038 16.8289774,0.29216007 C16.9860683,0.226984703 17.139463,0.157086484 17.3270481,0.213760716 C17.4826524,0.256021748 17.6273874,0.332412585 17.7511936,0.437623931 C17.9136475,0.573175363 18.02369,0.763327745 18.0616793,0.974139991 C18.0862419,1.07646857 18.1171056,1.17710841 18.1540857,1.27545799 C18.1651745,1.3104071 18.186428,1.34346707 18.1947445,1.38030532 C18.2695938,1.72129528 18.3370505,2.06417438 18.4183681,2.40421977 C18.5209393,2.83683307 18.6336751,3.26755723 18.7445628,3.69922596 C18.7870698,3.8616921 18.8369693,4.02226909 18.8813244,4.18473522 C18.8988816,4.25368886 18.9016538,4.32736537 18.919211,4.39631901 C19.0162378,4.77414723 19.1178848,5.14536344 19.2130635,5.52035794 C19.2953052,5.84434563 19.3683063,6.1692779 19.4486999,6.49326559 C19.5133844,6.75585619 19.5845374,7.01750223 19.65107,7.28009284 C19.7176026,7.54268344 19.7887556,7.82699917 19.8589845,8.09998006 C19.9292134,8.37296094 20.0012904,8.63744069 20.0659749,8.90664329 C20.1408241,9.21646242 20.2064327,9.52817069 20.2812819,9.83704526 C20.3182445,9.9862874 20.3736883,10.1308067 20.412499,10.2800488 C20.5492606,10.8345117 20.6804777,11.3908638 20.8181633,11.9453267 C20.8920884,12.2409773 20.9844949,12.531905 21.0547238,12.8285001 C21.1249527,13.1250953 21.1471302,13.416023 21.2626383,13.690893 C21.2707024,13.7160267 21.2759719,13.7420086 21.2783473,13.7683478 C21.3430319,14.0621092 21.4049442,14.3558707 21.4751731,14.647743 C21.5352372,14.8923867 21.6073143,15.1341968 21.6710747,15.377896 C21.7283667,15.5979809 21.776418,15.8208996 21.8374063,16.0390953 C21.9122555,16.3130208 22.0065101,16.5822234 22.0730427,16.858038 C22.1599048,17.2188639 22.2199689,17.5872464 22.3077551,17.9480724 C22.3881487,18.2777275 22.5147455,18.5979369 22.5757337,18.9304257 C22.636722,19.2629146 22.7901167,19.6010708 22.7679391,19.9609522 C22.7699073,19.9963906 22.776751,20.0313688 22.7882685,20.0648549 L22.7882685,20.0648549 Z" id="Path"></path>
                </g>
                <g id="arrow_2" transform="translate(13.500000, 28.020000) rotate(6.000000) translate(-13.500000, -28.020000) translate(2.000000, 11.000000)" fill="#FFFFFF">
                    <path d="M5.74205251,33.328291 L5.67497114,33.328291 C5.61936131,33.2884789 5.5608124,33.2528267 5.49981423,33.2216329 C5.22030853,33.1021021 5.01813274,32.922806 4.94080283,32.617543 C4.12650955,29.4104417 3.29886211,26.2070183 2.45786051,23.0072727 C2.04605544,21.4313061 1.63456093,19.855033 1.22337699,18.2784534 C0.860951261,16.890058 0.291691314,15.4198301 0.178025662,13.9863809 C0.16975626,13.9028505 0.182227621,13.8185894 0.214361403,13.7408832 C0.300076485,13.5569898 0.406288652,13.3730964 0.605669386,13.2811496 C0.748526703,13.201749 0.907841926,13.1555246 1.07151222,13.145988 C1.87462527,13.1266792 2.79606241,13.5395199 3.56004466,13.7454805 L5.47745378,14.262221 C6.23398255,14.4663427 6.49578622,14.7173573 6.83864655,13.9698305 C6.93181512,13.7638699 7.03430054,13.5597482 7.12840079,13.3528681 C8.61514534,10.1116592 10.7847874,7.22038104 13.4927456,4.87170346 C14.8571844,3.67995454 16.351439,2.6413412 17.9480665,1.77493823 C18.3393745,1.56346079 22.4294746,-0.0998552072 22.4294746,0.0123197802 L22.4294746,0.144723044 C22.3765216,0.236147879 22.3307354,0.331437666 22.2925168,0.429757848 C22.2161186,0.678933435 22.152764,0.93178689 22.0847509,1.18280141 C21.4741662,3.40722614 21.3881129,5.74013889 21.8331958,8.00248896 C21.9263644,8.47693399 21.6599023,8.53118255 21.3189053,8.73806265 C19.8549433,9.6362248 18.5151872,10.7179571 17.333154,11.9561975 C16.0968071,13.2673576 15.3700923,14.7578138 14.3806421,16.220686 C14.2688398,16.3852706 14.2977221,16.5618083 14.4868542,16.6344462 C16.0874902,17.2486502 18.0626639,17.242214 19.5775848,17.996177 C21.367353,18.8862211 17.970427,21.3982053 17.3229054,22.0537853 C13.7685246,25.5615524 10.210417,29.0932255 6.77715529,32.7196038 C6.56938939,32.938437 6.36814528,33.1637064 6.05882564,33.2473779 L5.74205251,33.328291 Z" id="Path"></path>
                </g>
            </g>
        </g>
    </g>
</svg>